<mxfile host="app.diagrams.net" agent="Mozilla/5.0 (Windows NT 10.0; Win64; x64) AppleWebKit/537.36 (KHTML, like Gecko) Chrome/128.0.0.0 Safari/537.36" version="24.7.8">
  <diagram name="PÃ¡gina-1" id="PFZimCbNjBIoh72X95Dz">
    <mxGraphModel dx="1434" dy="738" grid="1" gridSize="10" guides="1" tooltips="1" connect="1" arrows="1" fold="1" page="1" pageScale="1" pageWidth="827" pageHeight="1169" math="0" shadow="0">
      <root>
        <mxCell id="0" />
        <mxCell id="1" parent="0" />
        <mxCell id="c7J5J3jAckgkYYv0fx0U-1" value="" style="rounded=0;whiteSpace=wrap;html=1;" parent="1" vertex="1">
          <mxGeometry x="40" y="80" width="200" height="440" as="geometry" />
        </mxCell>
        <mxCell id="c7J5J3jAckgkYYv0fx0U-2" value="" style="sketch=0;outlineConnect=0;fontColor=#232F3E;gradientColor=none;fillColor=#C925D1;strokeColor=none;dashed=0;verticalLabelPosition=bottom;verticalAlign=top;align=center;html=1;fontSize=12;fontStyle=0;aspect=fixed;pointerEvents=1;shape=mxgraph.aws4.rds_postgresql_instance;" parent="1" vertex="1">
          <mxGeometry x="101" y="110" width="78" height="78" as="geometry" />
        </mxCell>
        <mxCell id="c7J5J3jAckgkYYv0fx0U-3" value="" style="aspect=fixed;sketch=0;html=1;dashed=0;whitespace=wrap;verticalLabelPosition=bottom;verticalAlign=top;fillColor=#2875E2;strokeColor=#ffffff;points=[[0.005,0.63,0],[0.1,0.2,0],[0.9,0.2,0],[0.5,0,0],[0.995,0.63,0],[0.72,0.99,0],[0.5,1,0],[0.28,0.99,0]];shape=mxgraph.kubernetes.icon2;kubernetesLabel=1;prIcon=api" parent="1" vertex="1">
          <mxGeometry x="98.34" y="260" width="83.33" height="80" as="geometry" />
        </mxCell>
        <mxCell id="c7J5J3jAckgkYYv0fx0U-4" value="Bucket with&#xa;objects" style="sketch=0;outlineConnect=0;fontColor=#232F3E;gradientColor=none;strokeColor=#232F3E;fillColor=#ffffff;dashed=0;verticalLabelPosition=bottom;verticalAlign=top;align=center;html=1;fontSize=12;fontStyle=0;aspect=fixed;shape=mxgraph.aws4.resourceIcon;resIcon=mxgraph.aws4.bucket_with_objects;" parent="1" vertex="1">
          <mxGeometry x="110" y="400" width="60" height="60" as="geometry" />
        </mxCell>
        <mxCell id="c7J5J3jAckgkYYv0fx0U-5" value="" style="rounded=0;whiteSpace=wrap;html=1;" parent="1" vertex="1">
          <mxGeometry x="280" y="80" width="640" height="440" as="geometry" />
        </mxCell>
        <mxCell id="c7J5J3jAckgkYYv0fx0U-11" style="edgeStyle=orthogonalEdgeStyle;rounded=0;orthogonalLoop=1;jettySize=auto;html=1;" parent="1" source="c7J5J3jAckgkYYv0fx0U-7" target="c7J5J3jAckgkYYv0fx0U-4" edge="1">
          <mxGeometry relative="1" as="geometry">
            <Array as="points">
              <mxPoint x="359" y="430" />
            </Array>
          </mxGeometry>
        </mxCell>
        <mxCell id="c7J5J3jAckgkYYv0fx0U-7" value="" style="sketch=0;points=[[0,0,0],[0.25,0,0],[0.5,0,0],[0.75,0,0],[1,0,0],[0,1,0],[0.25,1,0],[0.5,1,0],[0.75,1,0],[1,1,0],[0,0.25,0],[0,0.5,0],[0,0.75,0],[1,0.25,0],[1,0.5,0],[1,0.75,0]];outlineConnect=0;fontColor=#232F3E;fillColor=#ED7100;strokeColor=#ffffff;dashed=0;verticalLabelPosition=bottom;verticalAlign=top;align=center;html=1;fontSize=12;fontStyle=0;aspect=fixed;shape=mxgraph.aws4.resourceIcon;resIcon=mxgraph.aws4.lambda;" parent="1" vertex="1">
          <mxGeometry x="330" y="271" width="58" height="58" as="geometry" />
        </mxCell>
        <mxCell id="c7J5J3jAckgkYYv0fx0U-9" style="edgeStyle=orthogonalEdgeStyle;rounded=0;orthogonalLoop=1;jettySize=auto;html=1;" parent="1" source="c7J5J3jAckgkYYv0fx0U-8" target="c7J5J3jAckgkYYv0fx0U-2" edge="1">
          <mxGeometry relative="1" as="geometry" />
        </mxCell>
        <mxCell id="c7J5J3jAckgkYYv0fx0U-20" style="edgeStyle=orthogonalEdgeStyle;rounded=0;orthogonalLoop=1;jettySize=auto;html=1;" parent="1" source="c7J5J3jAckgkYYv0fx0U-8" target="c7J5J3jAckgkYYv0fx0U-12" edge="1">
          <mxGeometry relative="1" as="geometry" />
        </mxCell>
        <mxCell id="c7J5J3jAckgkYYv0fx0U-22" style="edgeStyle=orthogonalEdgeStyle;rounded=0;orthogonalLoop=1;jettySize=auto;html=1;" parent="1" source="c7J5J3jAckgkYYv0fx0U-8" target="c7J5J3jAckgkYYv0fx0U-13" edge="1">
          <mxGeometry relative="1" as="geometry" />
        </mxCell>
        <mxCell id="c7J5J3jAckgkYYv0fx0U-23" style="edgeStyle=orthogonalEdgeStyle;rounded=0;orthogonalLoop=1;jettySize=auto;html=1;" parent="1" source="c7J5J3jAckgkYYv0fx0U-8" target="c7J5J3jAckgkYYv0fx0U-14" edge="1">
          <mxGeometry relative="1" as="geometry" />
        </mxCell>
        <mxCell id="c7J5J3jAckgkYYv0fx0U-8" value="" style="sketch=0;points=[[0,0,0],[0.25,0,0],[0.5,0,0],[0.75,0,0],[1,0,0],[0,1,0],[0.25,1,0],[0.5,1,0],[0.75,1,0],[1,1,0],[0,0.25,0],[0,0.5,0],[0,0.75,0],[1,0.25,0],[1,0.5,0],[1,0.75,0]];outlineConnect=0;fontColor=#232F3E;fillColor=#8C4FFF;strokeColor=#ffffff;dashed=0;verticalLabelPosition=bottom;verticalAlign=top;align=center;html=1;fontSize=12;fontStyle=0;aspect=fixed;shape=mxgraph.aws4.resourceIcon;resIcon=mxgraph.aws4.emr;" parent="1" vertex="1">
          <mxGeometry x="330" y="120" width="58" height="58" as="geometry" />
        </mxCell>
        <mxCell id="c7J5J3jAckgkYYv0fx0U-10" style="edgeStyle=orthogonalEdgeStyle;rounded=0;orthogonalLoop=1;jettySize=auto;html=1;entryX=0.968;entryY=0.5;entryDx=0;entryDy=0;entryPerimeter=0;" parent="1" source="c7J5J3jAckgkYYv0fx0U-7" target="c7J5J3jAckgkYYv0fx0U-3" edge="1">
          <mxGeometry relative="1" as="geometry" />
        </mxCell>
        <mxCell id="c7J5J3jAckgkYYv0fx0U-12" value="raw" style="sketch=0;outlineConnect=0;fontColor=#232F3E;gradientColor=none;strokeColor=#232F3E;fillColor=#ffffff;dashed=0;verticalLabelPosition=bottom;verticalAlign=top;align=center;html=1;fontSize=12;fontStyle=0;aspect=fixed;shape=mxgraph.aws4.resourceIcon;resIcon=mxgraph.aws4.bucket_with_objects;" parent="1" vertex="1">
          <mxGeometry x="480" y="269" width="60" height="60" as="geometry" />
        </mxCell>
        <mxCell id="c7J5J3jAckgkYYv0fx0U-13" value="stage" style="sketch=0;outlineConnect=0;fontColor=#232F3E;gradientColor=none;strokeColor=#232F3E;fillColor=#ffffff;dashed=0;verticalLabelPosition=bottom;verticalAlign=top;align=center;html=1;fontSize=12;fontStyle=0;aspect=fixed;shape=mxgraph.aws4.resourceIcon;resIcon=mxgraph.aws4.bucket_with_objects;" parent="1" vertex="1">
          <mxGeometry x="660" y="270" width="60" height="60" as="geometry" />
        </mxCell>
        <mxCell id="c7J5J3jAckgkYYv0fx0U-14" value="analytics" style="sketch=0;outlineConnect=0;fontColor=#232F3E;gradientColor=none;strokeColor=#232F3E;fillColor=#ffffff;dashed=0;verticalLabelPosition=bottom;verticalAlign=top;align=center;html=1;fontSize=12;fontStyle=0;aspect=fixed;shape=mxgraph.aws4.resourceIcon;resIcon=mxgraph.aws4.bucket_with_objects;" parent="1" vertex="1">
          <mxGeometry x="810" y="271" width="60" height="60" as="geometry" />
        </mxCell>
        <mxCell id="c7J5J3jAckgkYYv0fx0U-16" value="" style="rounded=0;whiteSpace=wrap;html=1;" parent="1" vertex="1">
          <mxGeometry x="960" y="79" width="120" height="441" as="geometry" />
        </mxCell>
        <mxCell id="c7J5J3jAckgkYYv0fx0U-15" value="" style="sketch=0;outlineConnect=0;fontColor=#232F3E;gradientColor=none;fillColor=#C925D1;strokeColor=none;dashed=0;verticalLabelPosition=bottom;verticalAlign=top;align=center;html=1;fontSize=12;fontStyle=0;aspect=fixed;pointerEvents=1;shape=mxgraph.aws4.rds_postgresql_instance;" parent="1" vertex="1">
          <mxGeometry x="981" y="261" width="78" height="78" as="geometry" />
        </mxCell>
        <mxCell id="c7J5J3jAckgkYYv0fx0U-18" value="" style="aspect=fixed;sketch=0;html=1;dashed=0;whitespace=wrap;verticalLabelPosition=bottom;verticalAlign=top;fillColor=#2875E2;strokeColor=#ffffff;points=[[0.005,0.63,0],[0.1,0.2,0],[0.9,0.2,0],[0.5,0,0],[0.995,0.63,0],[0.72,0.99,0],[0.5,1,0],[0.28,0.99,0]];shape=mxgraph.kubernetes.icon2;prIcon=user" parent="1" vertex="1">
          <mxGeometry x="1120" y="248.5" width="109.38" height="105" as="geometry" />
        </mxCell>
        <mxCell id="c7J5J3jAckgkYYv0fx0U-19" style="edgeStyle=orthogonalEdgeStyle;rounded=0;orthogonalLoop=1;jettySize=auto;html=1;entryX=1.013;entryY=0.513;entryDx=0;entryDy=0;entryPerimeter=0;" parent="1" source="c7J5J3jAckgkYYv0fx0U-18" target="c7J5J3jAckgkYYv0fx0U-15" edge="1">
          <mxGeometry relative="1" as="geometry">
            <mxPoint x="1070" y="301" as="targetPoint" />
          </mxGeometry>
        </mxCell>
        <mxCell id="c7J5J3jAckgkYYv0fx0U-21" style="edgeStyle=orthogonalEdgeStyle;rounded=0;orthogonalLoop=1;jettySize=auto;html=1;entryX=-0.017;entryY=0.517;entryDx=0;entryDy=0;entryPerimeter=0;" parent="1" source="c7J5J3jAckgkYYv0fx0U-7" target="c7J5J3jAckgkYYv0fx0U-12" edge="1">
          <mxGeometry relative="1" as="geometry" />
        </mxCell>
        <mxCell id="c7J5J3jAckgkYYv0fx0U-28" value="" style="rounded=0;whiteSpace=wrap;html=1;fillColor=none;dashed=1;" parent="1" vertex="1">
          <mxGeometry x="430" y="248.5" width="470" height="160" as="geometry" />
        </mxCell>
        <mxCell id="c7J5J3jAckgkYYv0fx0U-27" value="" style="shape=image;verticalLabelPosition=bottom;labelBackgroundColor=default;verticalAlign=top;aspect=fixed;imageAspect=0;image=data:image/png,iVBORw0KGgoAAAANSUhEUgAABLAAAAGUCAYAAAAlJNtIAAAACXBIWXMAAAsTAAALEwEAmpwYAAAgAElEQVR4nOzdd3wcxf3G8Wf2inovlnvBNmBswJSAEzBgQjG9915SIIYEAymEhIQaCCTETui9YwjdIfTeTXHFVa6qltWl6/P7Q5awf5QYe6Xbkz7v1yuxkWBudLfanX32OzPGWjtE0p8EAAAAAAAAeJCx1u4o6bNkdwQAAAAAAAD4Jk6yOwAAAAAAAAB8FwIsAAAAAAAAeBoBFgAAAAAAADyNAAsAAAAAAACeRoAFAAAAAAAATyPAAgAAAAAAgKcRYAEAAAAAAMDTCLAAAAAAAADgaQRYAAAAAAAA8DQCLAAAAAAAAHgaARYAAAAAAAA8jQALAAAAAAAAnkaABQAAAAAAAE9zJKUluxMAAAAAAADAt3EkpSe7EwAAAAAAAMC3YQohAAAAAAAAPI0ACwAAAAAAAJ5GgAUAAAAAAABPI8ACAAAAAACApxFgAQAAAAAAwNMIsAAAAAAAAOBpBFgAAAAAAADwNAIsAAAAAAAAeBoBFgAAAAAAADyNAAsAAAAAAACeRoAFAAAAAAAATyPAAgAAAAAAgKcRYAEAAAAAAMDTCLAAAAAAAADgaQRYAAAAAAAA8DQCLAAAAAAAAHgaARYAAAAAAAA8jQALAAAAAAAAnkaABQAAAAAAAE8jwAIAAAAAAICnEWABAAAAAADA0wiwAAAAAAAA4GkEWAAAAAAAAPA0AiwAAAAAAAB4GgEWAAAAAAAAPI0ACwAAAAAAAJ5GgAUAAAAAAABPI8ACAAAAAACApxFgAQAAAAAAwNMIsAAAAAAAAOBpBFgAAAAAAADwNAIsAAAAAAAAeBoBFgAAAAAAADyNAAsAAAAAAACeRoAFAAAAAAAATyPAAgAAAAAAgKcRYAEAAAAAAMDTCLAAAAAAAADgaQRYAAAAAAAA8DQCLAAAAAAAAHgaARYAAAAAAAA8jQALAAAAAAAAnkaABQAAAAAAAE8jwAIAAAAAAICnEWABAAAAAADA0wiwAAAAAAAA4GkEWAAAAAAAAPA0AiwAAAAAAAB4GgEWAAAAAAAAPI0ACwAAAAAAAJ7mSMpIdicAAAAAAACAb+NISkt2JwAAAAAAAIBvwxRCAAAAAAAAeBoBFgAAAAAAADyNAAsAAAAAAACeRoAFAAAAAAAATyPAAgAAAAAAgKcRYAEAAAAAAMDTCLAAAAAAAADgaQRYAAAAAAAA8DQCLAAAAAAAAHgaARYAAAAAAAA8jQALAAAAAAAAnkaABQAAAAAAAE8jwAIAAAAAAICnEWABAAAAAADA0wiwAAAAAAAA4GkEWAAAAAAAAPA0AiwAAAAAAAB4GgEWAAAAAAAAPI0ACwAAAAAAAJ5GgAUAAAAAAABPI8ACAAAAAACApxFgAQAAAAAAwNMIsAAAAAAAAOBpBFgAAAAAAADwNAIsAAAAAAAAeBoBFgAAAAAAADyNAAsAAAAAAACeRoAFAAAAAAAATyPAAgAAAAAAgKcRYAEAAAAAAMDTCLAAAAAAAADgaQRYAAAAAAAA8DQCLAAAAAAAAHgaARYAAAAAAAA8jQALAAAAAAAAnkaABQAAAAAAAE8jwAIAAAAAAICnEWABAAAAAADA0wiwAAAAAAAA4GkEWAAAAAAAAPA0AiwAAAAAAAB4GgEWAAAAAAAAPI0ACwAAAAAAAJ5GgAUAAAAAAABPI8ACAAAAAACApxFgAQAAAAAAwNMIsAAAAAAAAOBpBFgAAAAAAADwNAIsAAAAAAAAeBoBFgAAAAAAADzNkZSZ7E4AAAAAAAAA38aRFEx2JwAAAAAAAIBvwxRCAAAAAAAAeBoBFgAAAAAAADyNAAsAAAAAAACeRoAFAAAAAAAATyPAAgAAAAAAgKcRYAEAAAAAAMDTCLAAAAAAAADgaQRYAAAAAAAA8DQCLAAAAAAAAHgaARYAAAAAAAA8jQALAAAAAAAAnkaABQAAAAAAAE8jwAIAAAAAAICnEWABAAAAAADA0wiwAAAAAAAA4GkEWAAAAAAAAPA0AiwAAAAAAAB4GgEWAAAAAAAAPI0ACwAAAAAAAJ5GgAUAAAAAAABPI8ACAAAAAACApxFgAQAAAAAAwNMIsAAAAAAAAOBpBFgAAAAAAADwNAIsAAAAAAAAeBoBFgAAAAAAADyNAAsAAAAAAACeRoAFAAAAAAAATyPAAgAAAAAAgKf5k90BAAAAAEgV1lrJWtl4QkrEZRPr/24TsomO7yXaQrI2IRuNKRGObPTfG8fIZGTIGMlJT5Px+2SMIzlGxnEkx5FxHBnf+r8bk6SfFAC8hQALAAAAADYQD4UVXVuvWHOLomvr1bZ4uULlqxRd16B4c5tijU2KtbQp1tQixeMdgZa1kpWkzj/Xs/brL9AZSpmv/tnIdHzdGDnZGfJnZcmflyNfTqZ82VnKGDpQGSOHKn1wf/lyshQoypc/J7sj9AKAPoAAC8A3iofDiq5rUsvchYrW1MlGozJ+v/wFucreflsFi/LlZKTzVBBJZ+NxRdbWq33JCrWvWCMbjsj4ffIX5iln3DYKFBXIyfTWsdoyf7EaP/hcxvFOnyTJJqxKj9xfgYK8ZHeli7VW8eZWhavXqnXuwo6bxYSVLytDaYPKlLnNVvLn5sjx+5LdVWwCa62qHnpGNhZLdle+xvj9Kj58PwVysnr0da21Wvv8a4rW1W9RO05GhkqP3F9OMOBSz3o/m0go3tauRFtI4aoatS5YqnBVrVo+X6DwmmrFm1sUD4WVaA93XEOMugKmLb6mdIZaXdmW3SjzitdHFa9vUnhVxfpMbH3VV8LKBPzypQflZGcpkJ+n7B22VfrgMqX1L1XWdqPkz82RLztDxu/31LUPALYUARaAjUQbm1U9Y6aq7vu3Yg1NktaXyncyRkaSk5mh0iP2U9mZxyitXzEDJPS4WHOLqp94UTVP/EfhlRWS/v+xKhkZmYx05e4yTsN/f77SB/RLUm831vzpPK284Q7J562n5jYWV8Geu3oiwLLWqnX+Eq2+5SE1vPuJFItv/PlK628ojdIG99eQC85Q/t67yZcWTFKPsUms1aqb71W8PZTsnnyNLzNDBZMm9HiAJUlVDz+rljkLt6iNYGmRig/emwDrOySiUbWXr1LbouVaO/MNhVdXKbSqQorFJW18DdlwXOMEknjLtH7c1VmxZdZn9YlQRIlQRNHadWpbXL7xvyspUFyg4IB+ytttR+VNGK+MrYYqUJDLeA1ASiPAAiCpY9DWMm+RFk+9VuFVlR3rMHQOlr5hsJNobVPlA0+r9vnXNOgXp6n4oL0VyMvp6W6jD4qHwmp4d5ZWXH+bwqurNnoS/k3Hqm0PqeHNDzXn8/nqf+YxGnDWsXJ83qjW8dqNxDdMckmKeCisqkee0+pp9ysRDndNj/nG98tahVas0aKpVytj+BAN+sUpyv/RLvJlZXju/cVX+Gy+jvfEXdZaxVvaFK6pU/OsOWr6ZI6aP5uvWF294qFwVwC+4fueip/Bt/U5urZekdp1avlsntbc8aj8udlKHzpQeRPGK3fnccrYaoiCxQUyHrkeAsCmIMACIGutGt6bpcVTr1W8pbVj0dD/xRgZn1G8qUXLr5qu6see15BfnqmCiT9gLQZ0C2utwhXVWnr539T08WzJ2k0+1ozjKN7cqlU33ysnI139TzqM49Sj4qGQll93m2qe+I+MMZv0OXXewLWXr9Tiqdcoc9RwDfv9+crZfpv1iyOn3k0pgO/PWqtENKa2hcvU+MFnWvvcawqtqpCNRDcKq7zyEKO7GWOk9T9rvKlFrXMWqmX2l1pjH1agMF85O22n4kMmKWfnsQrk57ozNRIAuhEBFgA1f/GlFp73RymR2KyBi3EctS9ZoYXnX6H04QPV/9Qj16/DwVQebDmbSKj1y6Vafs2/1DJ7oWzncbo5x6oxWnHtLWr7cqm2uvIiBuoek4jFNf+MS9UyZ+FmBYydn2fb4nLNP22q/AV5Kjv5cJUeuZ+C/Ur4vIFeyCYSCq1Yo/q3Plbdi2+qfckKxdvaN5p6xwOLr3ReP2MNTVr36nta98q7XWuc5u+1mwr3/aFydx4rXyZVrAC8hwAL6ONibe0q//M/ZOPxLRqodC5uGlq+RuV/nqbGd2dp4M9PVtbWIxg4YrNYaxVratbqfz6gmn+/pMT6KR9bOqA2jqO1z72mgT89URmDB7jUW7ih4d1P1DJ30RafMzpv0OKNzVo97X5VP/qc+h13kMpOPkL+vBxuyoAUZ61VIhRW06dztfa511T/2nuKt7RJjrPJlZv46lypREKxugbVPvGiap/4jzJGDlPJ4fsqf+IPlDlssAybZADwCAIsoA+z1qrijsfUtqjctRu6zsHQutfeV/3rHyhnp+008LxTlLfr9gwosUmstYrWrlP5X25VwxsfdayB5PK0BhuPq/xP/9C2d1xLmOER0eZWlV813fV2jc9RbF2jVt/ysNbcNUO547fTkIvPUdbo4az9AqSYeDiihrc/Vs3jM9X0+Xwl2toldYw9+H3ech074xqFlq7Qypvu1qq/3aNg/xLlT9xNA848WmkD+nHNBJBUBFhAH1f38tvdMhjpbLNp1lw1/+QylZ12lMpOOERpA0oZ/OAbWWsVa2zW2hdeV8VdMxSprpVZ/zTdbcYYNX82X+E11UofVOZ6+/j+Wj6bp8iamk1bg28zGGOkaEyNH36ueadcpIK9d9eg809R+pABcvwMhwCvstYq3taudS+/o+rHZ6rliwVdazUxnugmG+xmGKmoVfXDz6ruhddVuN8e6n/WMUofVMZ5E0BScOYB+rBENKpIRW23voZZX5peec8MVd3/bxUfso8G/ewkpTN1CxuINjSq6uHnVHH3jI6pglK3V+wl2kNqeOdjlZ1waLe+DjZN7XOvSj1wL2qMkY1EVffft7TupbeVNmSAhl3yE+VO2FG+tLTu7wCATWJlFams1Yqb7lLDmx91rGul7r824P8xHZWs8ZZW1fz7RdU+9V8FB5Vp6EVnK3/PXeVL57wJoOcQYAF9WLy1XTYW65HX6gyyap96WfVvfKDSoydrwNnHyp/LejR9WTwUVsO7s7Ti+tsUXlXZtX5JjzBGoTVVPfNa+J+i9U2btTD/5uo8zkIr1mjhlCuUOWak+p1wiIoOmCh/ZkaP9QPAxqy1iqxrUOU9T6j2qZcUa2jqtmpcfD+dn0F4VaUW/eoqZY0ZqbKTD1fxgXvJSWPjHgDdjwALQI8yPkfxplZV3D1D9W98oMEXnKHCSRMkx8j0RPkFPMFaq3BFtZZedqOaZs2VsTYp65fYSM8EuNgE8XhSXrZr58L5i7Xs8r+p5vGZGvSzk5W/5y5sKQ/0IGutEpGI1s58U6tveVCRihoWZPeorvPmgiVaetmNWjvzDQ351VkdG/dwzgTQjQiwACSFMUahZau06MI/K33oQPU//UiVHnmAnCBP8HozG4+r9culKr/mX2qds0g2kfhqFyQgqYyMkVrmLNSX512uQGmRSg6ZpP6nH6VAUQE3ZUA3irW0qfbZl7XqH/cr3tySshVXVpLj93fs2udzZBxfx7p+XwvhrGwsLlnJxmJd/5NNRq+3RMd5s/HdWZrz7izl/XAnDfrZycoZPyYlPz8A3keABSB51lc3hFdVqvzP01X/xocafMHpytp6K5649jIdFVc1WnP3DK19+iUlwhEW4IUndQaqsbX1qrh7htbOfENlpx6psmMny8nM4JgFXNRZjbto6rVqnbNQxnhvjSsrK2Ocjkpxx5GTkaZAUYEChfny52bLX5ivtP4lSh8yUMHiAjkZ6TLBgIzfJ+P3y/h8HYHWRo1aJSLRjr+GI0pEIkpEYoo1NCm0ulLhimpFq+sUa2lVtK5BsfoGxZpapHhCNpGQEt5KujrPi43vfaqmT+Zo2G9+ppLDfiwnLcg5E4CrCLAAeIJxHDW8/Yka3pmlnJ2208BzT1DebjvKCXCaSmXWWrUtWqbVtz+m+lfelY3HCa6QMozjKFpTp5V/vUOrp9+vvAk7afCFpytzxBDP3WQDqSbW1KKlf/yb6l/7oOPa4CT/umCtlS8zQ8GyYqUN6Ke8CeOVNqCf0ocOVLBfsZy0YMfuez73K8Sstd/apk0kZONxJSJRxeqb1F6+SpGaOjV/Nk9tC8sVqa5VrKFZsskNtjp3ey3/8zStmna/trryVyrYc9ekLBEAoHfizhCAZ3QO3JpnzdWXn/9RhXvvpqG//qnSykq4WUwx1lrFmlpU+9yrWv2PexVvbU/ZKSGAMUY2HFH96++r6cPPVXTARPU78VBlbT2cGzPge7LWqnXeYi27cppa5y6WcZL0UMNayefIyUhX+uD+yhw5TPl7/UBZ245SsF+hfOnpPdqd73oPjON0VH8FAvJlZih9UJkkqd/RB8omEorUrlN4dZUa3v9ULV8sUNui5Yo3tygRjSVldVFjjGL1jVp04ZXqd8IhGnLR2R3VWEnoC4DehQALgOd07li47tX3VP/Gh8oZv51GXHGB0ocOJABJAZG6BlU99Iwq739SiVBERt6bEgJsDmOMEu0h1Tz1X9U+85Iythqm/qcfoeKDJskJBpLdPcDz4qGQVt/2iCrvniEbT/R41ZW1VoHCfGWOHqbSYyYrc+sRSh/Uv2O63/rxxXdVQnnB/++bcRwFS4uU1q9YuTuP7VhGKx5XtLFF7YvLVfvCa2r5dL5CK9b0fD8TCVU99Izq3/hQI664UHm77+jp9xaA9xFgAfCszsFP0yezNfeEC1V6/MEacOYx8uflMADyoHh7SA3vfarl196iSEV1x7offE7ohYwxkpXaFpdr6WU3qebfL6ns5MNVsNdu8qWnJbt7gOdYSfHmVi2+9Do1vPVxj1dd+bKzlLPLWOXtPl5FB0xUoLjgW6uBUvG6tWGfjST5fAoU5Cq4247K221Hxdva1fTZPDW88aHWvfqeousapVisRzZQMcYovKZKC6dcoUHnn6IBpx3dsbA9AGwGAiwAnmeMUby1TRV3Pa6qh55R8SGTNPTic+TPzkp21yApEYmo4r6nVHn/vxVvaOp4es20KvQBnQu+N386Ty2fzZe/ME8lRx6gAeccpwDnJ6BL86fztGjq1YrWruuxqiuTnqai/fdU6bGTlTVmpJxAICXDqc214c/qZKSr4Ee7KP9Hu2jY785TuKJaDW9/oop7ZihcUS3TzZP7jDGyoYhW3XS3mj9boJFXT5U/h3MkgO+PAAtAyuhch6Zmxkw1ffi5+p9xtIon7yV/bk6yu9YnJWIx1b/1oSruekItn8/v2lWyL90gANJXN4qxugZV3P6o6l54XaVHH6jiw/ZVWv9SfifQZ1lrVfPMy1px7a2Kt7Z1+++ClRTsV6x+Jxyi4sl7KW1gmYy8Py2wu3X+7KbjH5Q+sExlJxyi4kMnqfGj2aq8+3G1LliqRCjcfe/T+mbrX31X86tqNebOa+XPze6e1wLQazkixAKQYozjKLy6SuVXTtfcU6eqZcFiJRKJZHerz7DWKlRZrfKr/6VFv7xaLV8sYIF2QOoIcX2OIlW1WjXtPs05foqqZ8xUtKlZNsm7gwHJ0DxrrpZfcbMSbe3dd41Y/7vly8nW0KnnaPsZ0zXonOOVvj68klJzWmBP8Gdlqmif3bXdvTdom9uuVuaYkZIx6s6zlXEctc5frMWXXKtYc0s3vhKA3sgviegbQEoyxqh96UrNOXaK0ocN0rDf/FR5P9iRxZS7ibVWLQuWqOKuGap/+R3ZRKJrChWAjRnHUby+SeV/+odWXHerCvfbQ2UnHa7scaPZ1AC9nrVWK6fdp8q7ZkjxeDdeJ4wyRg/X0EvPVe7OY+UEAoTFm8H4fMrbeay2f3y6wpU1Wv3PB7Tu5XeVaG3rls/OGKOGd2fpiyN+prGP3qy0kiLXXwNA78QICkBK65yyFlq+WgvP+4MWTb1K4apaWSqyXGOtVbSxWVUPPaP5p16sdf99S+rj0zGATWKMjOPIRmNa+/zrmnf6xVp+/W1qK1/FOQq9lpXU8MFnqrjzcSmR6LbwysnM0JCLz9HYB29U/u7jZfwdk0q4Nm0+Iym9f6lGXjVVY+75i3J/uHPH59cNoaAxRpHqtVr0q6sVqW/o1qovAL0H0wcB9Aqdu4LVv/6hGt76RDnjx2j45VOUMWIwg9ktEK6tU9X9T6vqkWe71sbg/QS+P+MYKR5X1YPPqPrhZ5U1dmv1P+UI5e+1m/xZGcnuHuAKa60q7nlSK2++W6Y7witr5cvL0YCzj1O/Yw+SPyerq+KKa5O7sseM0ra3X62WOQu18m93qenjOa4v9W6MUcvn8zX3+As17sl/KpDDxCAA340KLAC9ijFGSiTU9MkczT3pl1p5012KNrL+zPcVbw+p8uFnNPfEC1Vx12Oy4Qg3B4ALOsP2ltlfavGl12neKb9S/dsfK9bWTgUCUpqV1F6+Squn3y+TsN1SeZU+YrDG3HeDBp51rHzZmZIIrrqVtcoZt7W2ufUqlR47WSYt6Pp4yhijcEW1ll/9L8VDYVfbBtD7UIEFoFcyxijR1q6Ke55Q1aPPqXjyXhr4kxOVPqh/srvmafFQWBV3z1DVI88pVt8oqWNtDADu6rzpblu8XAvP+4Oc7Ez1P/1o9Tv6QAVLCpPcO+D7a1u4TPPPulSJSDc88PD7NOKKC1V88D5y/P4+v6tgT+l8j33BoLb6wwUadO4JWvDTy9S+bJWr778xRmuff03x1naNvvF3rGUK4FtRgQWgVzPGyIYiqnniv5pz7BRVPfZ8R0UWtQ4bScRiqnvtPc0/6zda/c/7Fa9vZLog0AM6f8fiza1a/Y97Nfvo81TxwNOK1NRROYqUkYhGteSyGxVrbHH1umGtlb+4UCOvuUQlh+8nx8c6V8mU1r9UY+79q4oP2tv1to0xqn/tPa2+7WHX2wbQexBgAegTjM9RvLlV5VdO17xTp6pl3hJZa/v8DaK1VqGKai274mYtvvBKtc5eIOP42FkQ6GHGGBmfT7H6Rq34y62afcIUrZ35RsfUwj5+noL3rZ35htq+XOp6eOXLydK2t1+l4sl7dSwkzqUp6QIFudrqmouVt/fu7k8ndBxV3v2EwpU1rrYLoPcgwALQd5iOm8T2ZSs197gp+vyQc9Tw9sdKhCPJ7lmPS8Tjapm3SIsvvkafHXiGap9+ueMbBFdA0hljFKut15JLr9OsiSeo/MrpalmwRIlYPNldA75m3Wvva9kf/+56VVT+xB9ox+fvVNao4ZKouvIKY4wcn0/bTPujRv31d3KyM13dpTARjWrBeX9UtKnZtTYB9B4EWAD6HGOMjGMUWrFGX/7ij1p00VUKV9b2iSoHa62ijc1afu2/NO+0S1T337dlLDcGgBcZx5ENR1T9+Auad+pULfndDQpV1sgmEsnuGiBJijW3asWNd0ox945Ja60CpcUadd2lChYVuNYuXGSMZK2KDpyoUX/9neT3uRZiGWPUvnCZVt/6MIs9APgaAiwAfZYxRsZK9W9+pM8OPEPzz7xU9e/NkrW97+bQWqtwVa0WX3ytPp10iqoffUG2OxbaBeA6Y4xsOKK6mW/o8wPO0Oxjzte61z9QvD2U7K6hj1t86XUKLV/t2tQ+a63y99xVOzx9i/y52e40im5h1odYBT/aWaP/8Uc5Genute1zVP3Qs2pftsq1NgH0DgRYAPo8Y4yUSKjpkzla+LPLtfKmu3tNRZa1VvFQWFUPP6s5J/5SdS++RXAFpKjOG8a2ReVaOOUKzTvr12r6dJ7i4UivOF8htbSvqVLDu7NkHHduJ6y1yhg5VFtddZH8OYRXqcAYI2utCif+QMMun+JqxZSNx7Xm9kc5twHYiD/ZHQAAr+gIsqwq7nlClQ88paLJe2vQz05U+pCBKRn4xNpDWnPHo6qZ8R/F6htlJBkn9X4OABvrPB+1zlmo+adfLH9Bngacc5yKD56kYFF+knuHvsDahJZfNV1KJFxbOzFQmK/t7r9RASqvUkpniFVy6CS1LVymynufdGWsYYzR2udfVf4eO6vkkEku9BRAb0AFFgBsaP1C74ontPaZlzX3xF+qesZMxRqbU+YpYCIWU93r72vBGZeq4tZHFG9o7PiZUjCEA/DtOoOs2LoGLb/uVs057hdaffsjitY3psz5Cqmp6dN5anzvM/ce7hijoZecS3iVoowxMsZo8JTTlDdhvKvnnzV3Psa6fwC6EGABwLcwPp9iTS0qv3K6Zv34VFXc96Riza3J7ta3SkSjqn3xTX1xxM+0aMqf1DJvkYzPEfuOA73c+l3BItVrteof9+nTfU/Rl+f9Qe0rVhNkwXXWWq249lbZuDu7YlprNeTic1Vy6L4s2p3ifOlpGnXj7+TLynSlPWOM2peuVMv8xa60ByD1EWABwHcwxshIsu0hrbzhDs058QLVv/mR4uFIsrvWJRGPq3nuQs0/41ItuaRjQd3Op6EA+o7O33sbjanhrY8059hfaMlvr1db+Sol4lQwwB2Rmjq1LS535xpjrQKF+ep33GRJPG7pDQJ5Oep/5jHubYhjraoeeY5wE4AkAiwA2DTGyDiOwivW6MspV2jhBX9Wy4IlSa1usNZ2VIj9aZrmn36Jmr9Y0LHOFcEV0OcZx1GiPay1z7+uOSdcqPIrpymytp6KLGyx+rc+knUpELXWqt8ph8tJd28HOySXtVYDTjtSGSOGuHK+Mcao/rX3Famtc6F3AFIdARYAfC9Gxlo1vvuJ5hz7C80/81LVv/uJEj24PoO1VqGKGi2+5FrN2uck1fz7RdlIlOAKwNcYY2Tb2lXzxH/06b6naO5Jv1TDB58rHg4nu2tIQfH2kCrufMyVtqy1yt1tRw0861gZctVewxgjX2aGRlw11bVxSbypRVUPPO1KWwBSGwEWAGyGzqk6TZ/M0cKf/0Erb7xLocqabq1usNYqHg6r6uFnNffEC1T34lsEVwA2Sccuqwm1zFmoBef+Tl/+/PKO8D0aoyoLm6x1wR3mfTAAACAASURBVFKFV1e7dt0ZcPaxcvx+5g72QjnbjVKwX5E7VViOo4a3P+ZcBUD+ZHcAAFKZMUayVpX3Pamqh55W0YETNfDcE5UxYrCrwVK4dp2qH3pa1U+8qFhDE2tcAdgsHecNq6aPZqvpo9kKlhWr+OBJGnDWMQrk5Sa7e/C4ygeeci1sCvYrVt7uHTvWcT3rfYzPp0EXnKGlv73BlV2Q25etUrShUcGCfBd6ByBVUYEFAC4wxkjxhNY+95rmnvwrVT8+U7Gm5i1+WhgPhbTu9Q8094QLtOb2xxRvbGagD2CLdYbg0aq1qrjjMc05/gJVPvSMos2tVDngG9l4Qi2zF7pyDbKJhAr2mSDH5+Oa1ktZa1Ww924KlhS6ck6xsZjavix3oWcAUhkBFgC4yDiOEq2tKr9ymmbte6qW/P4mxZpavnc7iXBEtc+/qs/2O12LLviTItVrZXycsgG4zBgZn6PI6iotv/YWfbrPSVp00dUKra4iyMJGos0titatc6UtJzND/c84ypW24E3GGAVyc1Ry3MFuNai1z73qTlsAUhZ3QwDguvVb2YfCWvv0S5pz/BRVPf6C4qH/vWiyjcXUPHeR5p1xiZb85gZF6xs7WuQJNYDutL4iy4YjWvfS25p97PladuX0jt1WXdpxDqmtfekK2Wh8i9ux1ipz5FClD+znQq/gdQUTd3VlDGOMUfPsLxUPR1zoFYBUxRpYANCNjOMovLpKy6+crnUvv6MhvzxLWWNGfuNgLtbcquXX36a6F95QIhIhtAKQFMZxlGhpU83jL2jt0y+r30mHqv9JhynYv5TzUh8WWr7atfWvCib9UMbwHL0vyBg+uOO4caGgM1JTp1hzi3xphVveGICURIAFAD2k8f3PNOf9KcrZZZwGnHmMcsaPkXEctZevUsW9/1bD6+8rsX5XQW4SASSbMUY2GlXlvU+q6r5/K2fX7VV24qEq2Gs3OcFAsruHHrbu9Q9caccYo7wJO7rSFrzPn5Wp9OFD1L50xRaPbRItrWpbuExpxQRYQF9FgAUAPaRz4Nb8yRwtnDVX6YMHyPgdta+skGJxgisAntR5Xmr66As1ffSF8ifuqoHnnqCc7beRfD63inLgYYl4XOFVle5coxxH6UMGbnk7SBnpQ8rUvmT5lu9GaIxaFy5TwY92caVfAFIPARYA9LDOG4DwqoqOf+74YvI6BACboPPc1fDWx2p462OlDxmgkiP2V9kJh8iXk0UA34vFm1sVq29ypS0nPU2+zHRX2kJqKNx3D9W/8v6Wr75sjCKVta70CUBqYvI5AAAANllntWh4ZaVW/f0ezT3lItU++4qijc3/c+fCRDiiRGzLFwJHz0q0hxRva3OlrUBxgYyfZ+h9hbVW6YPKJBd2UjbGKFbfyA6pQB/G1QMAAADfn5GMz1Fo2UotvexGOWkBFR0wUWWnH62s0cO/VpFlrVRxzxOykaiMQ7VWKomHwoq3heVsYQhhrVWgMJ9pp32IMUb+wjw5aUHZSHSL24tUrXWhVwBSFQEWAAAANp8xHZuMRWKqffoV1b38jspOPEwlR+yn9IFlkjGKNjSpZsZMrbn9UcKrFJRoC8nYhLZ48oaVfFlMH+xrnMwMGb/flQAr1tLiQo8ApCoCLAAAALjC+BzZUEQVd89Q5T1PyJeXIyfgV7SuQTaRYJ2sFBVvdWf6oGRl0tJcagupwkkLyvh9rrQVb213pR0AqYkACwAAAK7qDKrijc2K/7+vAehbjOO4t1kNa+gBfRoBFgAAwHew1so4jjJGDVPuruNkw1G1zFusti+XUlUEfF+sv93n2FhMSiRcacvJzHClHQCpiQALAADgO/hysjT24b8rc/jgjb7evnKNap96WdWPPa9YUwtBFnqtQEGerNWWL75ujBJtITe6hBQSbw93hFgucNKCrrQDIDVt+X6mANBNrCTj88mfn6tAabFMMJDsLuF/MMGAMrcdqeztt5GTndlxt8PTdqQwm0io9JjJXwuvJCljyEANufAMbffgTSo5Yj/OUei1TDAgE3BpDaM2t9bTQqpItLXLRt2Z+ufPy3GlHQCpiQosAJ5krVXu7jtq1HWXKlCQJxmjeCismidfVOW9/1akplaGjbg9wVqr9KED1f/MY1S0/x4K5HYMLhPRqBrenaVFF10tRd158gr0PKPSIw/4zn8jc8QQjbxqqob9+qeqf/MjrfrHfQpX1nCGQq/hZKbLl5mxxdVTxhhFa+o6pt46PEfvK6Jr1ykRiWz5Z26tgmUl7nQKQEriygHAc6y1yhw5VKP/9nsFiwtlfD4Zx5E/M0MDTj1S4x69WUU/3kNOepqspbwnWawkX262+h1/sMY++g+VHTNZ/pzsru8bv1+Fe++uksN+LOvS2hdATzOOkfFt2nDJl52lkkMmadyM6Ro69RylDxvo3sLFQBL5MtLly8p0pa3IugbXppMhNbQtLJdcGK9ZSf6CXKZrA30YFVgAPKnfSYcpsEEYsqFgSaFG3XSZYo1Nqn7iRa259RHZcLiHe9h3WWsVKC5U/9OPUtmJh8iXnt71vQ0HlZ1/H3Dm0Vr77Kuy0WiP9xXoSZ3HvD83WwPOOFr9TztSzXMWqvLuGap/4wMpQeCO1OTLypS/KF/R2nVb3lgsrlhTq4LFrGXUV9S//bE7Yb61Sh/cf8vbAZCyqMAC4En+nKzvrK4yxiiQn6dB5xyvMff+RQX7/lDy+VhvqRtZWTnZGSo5cj+Ne2K6Bp55zEbh1bdx0tNlAjwvQd/RFeQao9wdttXomy/X1tOuUN6eu8r4/a5UIgA9yRijrG22cqXq2Vqr1oVLXegVUoGVFFpV6U7VlJWyth255e0ASFncUQDwrE0Z7FhJOWO31ui//V7tK9Zo1c33qf6Vd7q/c32JtXKyM1Vy1AEafP6p8n/faSRGLmxdBaSer85hRgUTf6D8PXdVpKpWVY8+r6oHn+moHGUqDFJE3g93Vu1TL215Q9aq8f3PVPCjXba8LXherKFJ0apaV851/vxcZQwdKGst0wiBPooKLAApbcPhS+awQRp94+806qbLlDV2dNL61GtYKycjTQUH7Kntn/yXhl/60+8fXgHoOk8ZY5TWv1RDf3WWtn/in+p/5tEKFBeylh9SQsbwga60YySte+U9xcMRV9qDtzV9Pt+1ttIGlsqXm014BfRhBFgAeoWvpuxIRfvtoTH33qD+ZxwtX05WcjuWgqy1kjHK2X28tr3rOo3+6++UPrAs2d0CepWM4YM0dOq5GvvYP1R8yCQ5GRnJ7hLwnTKGDJQTCGx5Q8YoUlGt9iUrtrwteF7Dmx+5NvU0d9ft5fh8LvQKQKoiwALQq3QGWU4woKFTz9FOrz2kIRefq0C/Yqoc/hcrmUBApccdpO2fuU1j7rxWOeO24Ukn0I3SSos06rpLtcvbj2jEn3+ljG1GJLtLwDdyMtKVNnSgO7vJJRJa/a8HXegVvKx9daXqXnjdpfWvrIoOnLjl7QBIaayBBaBX6gqy0oIacPpRKj54b6258zHVPPGiEqEwocyGrJV8jrLHbaNB552svB/uzJJVQA8zwaBKj9xfRZP3UuWDz6j23y8qvLqqY+dCfiHhAcYY5Ywfo/bF5Vt8DTXGqOmT2YqHwvKlp7nUQ3hN7dMvK97SKuNC1ZSTFlTGyGGsfwX0cVRgAejVOgc5weJCDfvNzzX+5fs1+JdnyqSnsROYJDmOCifvrXGPTdN2D9yo/B/uzPsCJEHnucqXnqZB5xynHZ+7U2PuvUEF+05goXd4RtkpR8gEg660FW9tV+0zL7vSFrwn3h5S1QNPyzgu3G5aq6ztRsuXkU54BfRxVGAB6DOMpGBBngaec7zyJozXmtseUcNbH0mxeN+6QbSSAj5lbbOVyk49UsWT95IxpmuKJYNDwAMco9ydtlPO+DGqf+tDVT34jFo+X6B4e4jfUSRNxrCByhw9TK3zFm95FZakirtmqGjyXgrk5rjTQXhG/RsfKtHW7sr4yiasCiZN4NwHgAosAH2QtcrZbrS2vvkP2v7p21Q4ee++M0XHMcqdsKN2eOY2jX347yo5aO+ubzEwBLxjw9/Hwr1217a3X6PxrzygAWcdK39BLmv6ISkcn08Dzj3BncaMUXhNtVb85XaO514mVFmj8qv+6drnGigtUulRB7jSFoDURoAFoM/Z8MYwc9ggjbr+19rq+t8oc7tRkhul7l5kjDK2HqGtb7lS2956lTKGDNzgWwRXgFd1/n4aYxTIy9HQi87W9k/eorKTD5e/KF/c9qMnWWuVP2G8nDR3phEax6juxTcVqalzpT0kn7VWK/96h2INja6ML6y1Kj1iPwXyqNIDQIAFoA/b8Maw5MC9tN19N2j4H6fIl52Z5J65ZP2TTyc7S8N+f77GPnCjCn64c9diqgRXQGoKlhRq2G9/rnGPTVPRgRPlpLsTJgD/izFGvqxMZY/fzrXqmkQ4olXT7pNNJFxpD8kVWlmhda+8587aV5KM46j48B+70haA1McaWACwnhMMqt9RB6r44H207rUPtPLGOxWprpVJ0fmFaUMHaejFZyvvRzvLFwwyRQPoRYyktH7FGn3DbxVvD2vt86+o6tEX1L5khUQQgG5kJI34/fmac9wUJdpDW96eMap9+mX58/M0dOrZPFxJYaGKas0/57ey8bhr1Ve5u+6gjGGDXOgdgN6ACiwAWK9zsOUEgyqZvJfGPXqzyk46XCYQSKnwx2RmaNCFZ2jcw39X4T4T5AQCHV/npgDolZz0oPode7DGPvQ3bXX1VAXLSiXHsKMouk36sEEqOngf166NxhhVPfiUQisqXGkPPc/GEyr/8zRFKmtcG28Y42jgT45n/AKgCwEWAPw/nQOlYHGhhv/25xr/yv0afOEZctLTPHtDaK2UMWqYRt7wW+3yxsMadM7x8uVmSSK4Anq7rvA9LaiSQyZpxxfv1rgn/6X8SRM8fd5C6jKShvzqrI7jyy2xuOae/Es1fT7fvTbRIxKxmMqvnq6Gdz5xbcxhrVXZGUcpb/fxKfUQEUD3ciQFkt0JAPCyYGG+Bp17gsbcd4Py9tpN8jmeGkz5C/I04Jxjtd2DN6n4wIldNxQEV0Df0hVk+XzKGjlMW9/8B217z/XK2XV7mWBAliXf4aJAbrZKjjzAvbWrjFG8sVmLL75ObUtWuNMmup21VqtveVjVM2a6N+6wVk4woP6nHSkjxjMAvuJIykp2JwAgFWSPGaVtp1+h7Z+6VUUH7yMFkreMoLVWwYH9NOzyKRr/ygMa8suz5M/MkMRAD8BXcsaO1pi7/6KdXnlA/c84Wv6CPE8F8EhtQy85R7m77ejeMWWMIlU1mnvihWpdtMydNtFtErG4Vk2/X2tue9jV9UKtpEFTTldaSZFrbQLoHZhCCADfhzHKHD5Yo/5yqcbc8xdlbruV5NJOO5vCSvLl56rfSYdp+8emqey4g+QLBFJ0mXkA3WnDnVYDBXkaNvVcjXvyn+p33EEdQVaS+4fU5wsGNfTXP5UvJ1tuHVDGGMXbQ/ry539Q4ydzqBz0qHh7SCtuuF1rbn/E1Qdn1kq5u+2ospMPJ2wH8DUEWACwGYyVcncYo3GPTdO4J6YrY+vh3TvQsla+/FwNOv8U7fTKAxr+25/Ln5ezvjPd97IAepe0kiINv3yKdnr1AW1z61VKGzqQgABbJHvrERr999+7ehwZYxSpXqsFZ/9atc+9JpvgGPWSSF2DZh91nqoeesbdnZqt5MtI06i//ka+YICKcgBfQ4AFAJtjg0FV1qjhGvvQ3zXyuksV7Ffs6q2gtVa+nCwNPP9U7fDULRr8s5PlSwsyqAOw2YwxcgIBFfxoZ42bMV2jb7xM6SOH9mg1KXoPa63yfrCDCiZNcPVBjjFGNp7Qsstu1PK/3KpEOOJa29g81lo1fjxb806/WKFVFe6PRXxGQy4+V8GCfHfbBdBrJG8BFwDoBboWTQ4GVHLIJOXtvqPW3PmYqh+bKcVim92utVbG51PBxB9oyAWnK3PUMHYSA+A6X3qaivbfU3l77Kr6V9/Vyr/drWjtuo5zEEE5NkHncTL8D1MUWrZK7ctXu3bsGGMka1X10DOKt7Zp6EXnyF+Qy7GZBDYeV/27s7T4oquVCIVd/wyslUoP31+lxxzI+QfAtyLAAgAXdA60gsWFGv6bn2vgT05UzYz/qPqx5xWpqdv0gZi1cjLT1e+kw9Tv2IOUPrBswxfphp4D6Ms6z02+jDSVHLqvig/aW62Ll2v1tPvV9NEXSrSHmaaMTZJWXKgx99+o2Uf+TLG6elevWcYY1T79sur++7aGXnyOSg7bT76MNNfax7ez1qp92UotvuQ6tS0qlzHubxZjrdWAs47VkAvPkByH8ArAt6JWHAC6QaAgT4N+eqLGPT5N/Y49SMEBpTLfsmuhlWT8fvlys1V8+I815r6/augvz9o4vAKAbtS14LvPp+xtttLW/7xC2955rfL3nSAT8LOYMjZJsDBPI66eKiczw/VjxhgjGwqr/MrpWnjhn9SyYCnHZTey1ioeDqvywac199Sp68MrI7cTbWutMkcP06BfnCbj8xFeAfhOVGABQDfYsCJrxB8vkE0kFGtqUWhVhSLVdUq0hyQZOWkBBUqLlDFkgPy52TJ+TssAks/IKGeHbbXNzX9QpK5BdS++pTW3P6xoXQM3mPhW1loV7rGLxj0+TXOOm7L+WucuY4wa3/tUcz/4XLkTxmvw+acqe9zWHJcuijY2qfrx/6j6oWcUWbtOxphueX+ttSrYe3eNuqFj0XYA+F+4UwKAHmAcR4H8XAXyc6VxX/8+6z0A8KpgUb76n3yYCn88QdWPzVTN4y8o1tic7G7BgzqvYxnDBmnElb9S+RU3K9bc6vr1rXNtrMZ3PlHzx3NUduoR6nfsZKUN6CfDZgSbxVqreGu7Gj/+Qiuvv12hFWtknO6riLLWKmPEEI38y6XyZaR3y2sA6H0IsADAAwivAHhdWr8SDbngdA362Ylq/Hi2Vlx3W8eC3cnuGDzHWqviAyYqe8wozTnhAsUam7vlOmccRzYaVcVdj6vynieUs8s4DTj7OOXtvqMcn8/11+uNrLUKr65S9ZMvqvqRZ5VoC3VtJNOdr1lyxP4acfn5MmmsZQZg0xFgAQAAYJOZQEAFP9pFuY+P1bo3PtCafz2k0MoKKZFIdtfgEZ1hVfrg/trmtqu15DfXK+Ti7oTf+HrWqunDL9T08Wzl7jpOxYdMUuGkH8qfl8NDom+QiETUMneR6v7zpmqffVXx5pauBdS7+/3Kn/gDjfjDFDlMGwTwPRFgAQAAYJN9tXNhukom762CvXbTupfe1pq7Zyhcvpop0dhIztjR2vaOa7T44mvU8sWX3XpsGKej7eaPZqvpoy9UcftjKpo8UUWT91bmyKFSD4QzXtW54H10XaOaPpmt6kefV/OsubKJREdo1d0Va9ZKxqj0+IM19NKfEF4B2CwEWAAAANhsvox0lR6xv0qP2F8tcxepesZMrX3hddlQWOqjYQE2lt6/VGMfuEmrpt2nyvueko1Gu/cFjZGRUXhNldbc8ZjW3P6o/AW5yhm/nYoOnKjsHcYovX9J94c2SWatVay+Se0rVmvtc6+p8aMvFF5VIRuLdwR5PRXoWSt/caGGXnquig/apyPMAoDNQIAFAACAzbbhDXD22NHKGjtapUftr9W3P6qm9z5VIhrrs1Uv+IpxHA2+8ExljdtaS399veLtoR45LjqDmnhji+pf/0D1r7wnf16OsnbYRkUHTlTOjmOU1r9UTsDfNYUuVVlrZWMxxZpb1TL7SzW+96nqX/9A4coaSV/9rvbkQvdWUtZ2ozTy6ouVOXIoFZoAtggBFgAAAFxjJOXsMEbb/vPPitTWqfY/b6ryzscVXdfAjWtfZ62KJv1QOf+9V6unP6CaGTN79OWNMZLfp3hrmxrfnaXGd2d1TJ8LBhQoyFPW2FHK2Gqo8vfYVcGSAgVLiuSkBXu0j5vKxuOKrmtQdF2jmj9foJbZCxRaWaG2heVKhCOysVhXhVVSfu+slS8vV4POO1llJx7aFZpxDgCwJQiwAAAA0C2CJUUaeNpRKt5vD1U+8pzqnn9d0dq6ZHcLSdIZXgQL8zX88l8o2L9EVfc/pWhDU4/vZrlhkGIjUUWq1ypcVSu99I7W3PqIfHlZChYXKXPkEOXsNFaB4kIFSgqUPniAfBlpMn6/jM8n43Ncr9yyiYRsPC4bT8jGYrKxuKJ19QqtrFS0rl6tXy5V67zFClfWKNbQLBuOSI7pqjaTerbK6muMlDZ0kEb/7TJljhrOTqUAXEOABQAAgG6V1r9Uwy46W0MuOF2N73+qNXfOUMunc5PdLSSRMUaDzj1B/U8+XCv+drdqn3op6eumGWOk9etiJZrbFGpuU/uylap76Z2vvm/M+rDIkZOVoUBBnnzZmfJlZcpJD8qXkSEnK0O+rAwFCvM7Fpb3+RQoyJNklWgPK97aJsko1tiseCisWH2DEqGI4qGIEq2tireFFKtvVLy5VYlYvGPNKJuQTdiv91eS8XtjLS9rrQJFBdrq6qnK2328HL+vY/F4qq4AuIQACwAAAD3C+Hwq2PMHypuwk9a+8IZqZsxUy5yFUjwhyjT6Jl9mhkZcdr5KDp2kZX+apvYlK6REItnd6vK1yiprpbiVVULxxmbFG5u7dvjrCJqk9f/X9YdkZbXhIW42+kMy6//e8ee3VXN5dfqdtVZOWlAlh/9YA885QekDSrveE6/2GUBqIsACAABAj+i8mXX8fpUe/mOVHLav2peu1Jq7H1fdC294KrhAz7HWKmf7bTVuxnS1LyrXipvvVdM7nyS7W5usK6T5jrCm18Y4Pp/Kjj9YA846Rmn9Srq+THAFoDsQYAEAACBpMkcO1chrLlHZCYeq+tHnVf/mh4o1Nvf8DbDjeGYqVl/TNRXOGGVts5W2nX6F6l59T1UPPq2Wzxd0VDbBM6y18mVnKX+PnVV2yhHK2XFM7w3oAHgKARYAAACSoiu4kJSz/TbK3n4bhVasUfk1/1LTx7OlaKzH+uLLyVq/ThGSpSu0dBwV77+nCidNUO3TL6vygacVKl8lm0hQ2ZNsfr9yd9xGw357njJHs0A7gJ5FgAUAAABPMJIyhg7UmNuuVrS5RTUz/qPqGTMVXl3VrTfK1loVHzpJTiDQja+CTdUVbPp86nfMZJUefaDal6zQ2v+8oZon/6toXT1BVk8yRpmjh6v06ANVfMgk+XOykt0jAH0UARb+r727iZG7ruM4/pmZ3Zl96gN0aWu3WGpB2gSRRKIhqQIHLUjigSeNB0NQ4smYqAlH9WDi2QseNT4kHjio8SkaQxBjYolGEhIV0EJ5bgt92p3d7e78PSyBAl0aatv5trxeyZxm8/9/85/JbvY9v99/AADKGV0zlZl778rGO2/Jsw/8NId+81CWDh0+J+dqj/UyfdvN5+TYnLmTtxZOXHVF3n/VPdl092058Ms/5tDvHs78U09ncGJJzDpHWt3RTH14VzbevicbPrU77W532CMB73ECFgAAZY2uXZPt93852772xbz6yN68+IMHc+xvj5+14zdNkx3f/momdmw7a8fk3Oltvixb7/tsZr50d04cfCVH9z6WF37yi8w9sS/NXP8db6TOO2uaJqOXrMv6mz6W6VtvzNS1OzMyNfn6cwDDJmABAFBea6STDTffkEs+/tEc+Pnv89LPfpX+k/vSLJ4442jRJFl7/YcyfctNaTW5iL8q7uLTarXSnd6Q6U/fnA17PpH+M8/n5Qd/m6N/fSzz+/Zn0F8Y9oj1NUnarXTWTmVy15WZvvXGrNv9kfQ2Tq88fVK0ssoNqEDAAgCgvDfui9TOpjtuycbb92Tx5UPZ/70f5pU/PJLB7LtffXP5V76QLffelVanfS5G5lx77eVudTqZ2H55tn3jvqRpMpjrZ+6pZ3Lw1w/l6N7HMv/M82n681ZnZSVKjVyyLuPbt2bj7bdk6pqrM759ZuVbON9yfUQroBoBCwCAC8bJ90XqbZrOju98PTP3fS7PPvCjHP7To1k6OnvaTtG7YiZb7rkzG+/Yk5ZlVxeNVpK0WmlPjGfNtTuz5tqdGSyeyIlDh3P4z49m9l//yZG//D1Lh49m+ejx5CLfFtc0Tdpj3XSmJjNx5bZMXnN11t9wXSY++IGMrFuTVlu4BS4sAha817WysoQczqGSn+K2WsP9NL7oJRnu+V0U3r1WkvErZnLld+9Pf99zee77P86xf/wzi8+//KZA0eqOZnzH+3PpJ3dn8+c/k5HJiZUtUhfLS+y9+rqTf5e0u6Ppbp7OpjtvTZIMlpay8OKB9J98Oq8+vDezj/87Cy8cyPKrR944QNNcUNfzTbtfR0fSnb40Y9tmMnXdrqzffX16M5vSm750iBMCnB2tpmm+meRbwx4EOP+awSDLs3PDHuOU2mM9X2d+kVh5n/VTsZS2RkfTGeud9/Mu9+ezPNsv9/9R0yQj69emPdI57+denuunWV4+7+c9vVY6k+NWKlxgmiSD/nyaE0tpBoO0Rjppd7tpd1f+rjRNUyaYNk2TpaPHk6Wl/+9A7bZVNWeoGQwymF/M0tFj6e97NvP7nsvigUOZffyJLL54MMvHZ7PcX8hgfiGDxYWhrdprT4ynPd5LZ3IiI2smM7lrR3ozm9Pbsilj22bS3XJZRiYm0up1L5ouC3AyAQsAAOAUmqbJ0pFjWTo+l8Hx2Sy+dDDz+19I/7/7s3TkeJZnZzOYm8/y3HwGCwtZnl9M059P0zQZ9Off8ditdjvtXjet7mhavW46Y720J8bTGR9LZ2oinfGx9LZuTm/r+9Lbuimj69elMzWRkbVT6YyPvW3OKlEW4FyxhRAAAOAUWq1WRtevzej6tWmSTO7cserPNk2zspS1aZLmzd/id+qDv7bd8aTHmSYo8Qp4LxCwAAAATuN0iaj1u83iNQAABGZJREFUlnsrSkoAZ5dN8gAAAACUJmABAAAAUJqABQAAAEBpAhYAAAAApQlYAAAAAJQmYAEAAABQmoAFAAAAQGkCFgAAAAClCVgAAAAAlCZgAQAAAFCagAUAAABAaQIWAAAAAKUJWAAAAACUJmABAAAAUJqABQAAAEBpAhYAAAAApQlYAAAAAJQmYAEAAABQmoAFAAAAQGntJJPDHgIAAAAAVtNOctmwhwAAAACA1dhCCAAAAEBpAhYAAAAApQlYAAAAAJQmYAEAAABQmoAFAAAAQGkCFgAAAAClCVgAAAAAlCZgAQAAAFCagAUAAABAaQIWAAAAAKUJWAAAAACUJmABAAAAUJqABQAAAEBpAhYAAAAApQlYAAAAAJQmYAEAAABQmoAFAAAAQGkCFgAAAAClCVgAAAAAlCZgAQAAAFCagAUAAABAaQIWAAAAAKUJWAAAAACUJmABAAAAUJqABQAAAEBpAhYAAAAApQlYAAAAAJQmYAEAAABQmoAFAAAAQGkCFgAAAAClCVgAAAAAlCZgAQAAAFCagAUAAABAaQIWAAAAAKUJWAAAAACUJmABAAAAUJqABQAAAEBpAhYAAAAApQlYAAAAAJQmYAEAAABQmoAFAAAAQGkCFgAAAAClCVgAAAAAlCZgAQAAAFCagAUAAABAaQIWAAAAAKUJWAAAAACUJmABAAAAUJqABQAAAEBpAhYAAAAApbWTjA97CAAAAABYTTvJpmEPAQAAAACrsYUQAAAAgNIELAAAAABKE7AAAAAAKE3AAgAAAKA0AQsAAACA0gQsAAAAAEoTsAAAAAAoTcACAAAAoDQBCwAAAIDSBCwAAAAAShOwAAAAAChNwAIAAACgNAELAAAAgNIELAAAAABKE7AAAAAAKE3AAgAAAKA0AQsAAACA0gQsAAAAAEoTsAAAAAAoTcACAAAAoDQBCwAAAIDSBCwAAAAAShOwAAAAAChNwAIAAACgNAELAAAAgNIELAAAAABKE7AAAAAAKE3AAgAAAKA0AQsAAACA0gQsAAAAAEoTsAAAAAAoTcACAAAAoDQBCwAAAIDSBCwAAAAAShOwAAAAAChNwAIAAACgNAELAAAAgNIELAAAAABKE7AAAAAAKE3AAgAAAKA0AQsAAACA0gQsAAAAAEoTsAAAAAAoTcACAAAAoDQBCwAAAIDSBCwAAAAAShOwAAAAAChNwAIAAACgNAELAAAAgNIELAAAAABKayfpDXsIAAAAAFhNO8nmYQ8BAAAAAKtpJ2kNewgAAAAAWI17YAEAAABQmoAFAAAAQGkCFgAAAAClCVgAAAAAlCZgAQAAAFCagAUAAABAaQIWAAAAAKUJWAAAAACUJmABAAAAUJqABQAAAEBpAhYAAAAApQlYAAAAAJQmYAEAAABQmoAFAAAAQGkCFgAAAAClCVgAAAAAlCZgAQAAAFCagAUAAABAaQIWAAAAAKUJWAAAAACUJmABAAAAUNpIkqXXHs2QZwEAAACAt/kf+lFNgYICTGEAAAAASUVORK5CYII=;" parent="1" vertex="1">
          <mxGeometry x="624.65" y="364.5" width="130.69" height="44" as="geometry" />
        </mxCell>
        <mxCell id="c7J5J3jAckgkYYv0fx0U-29" value="" style="shape=image;html=1;verticalAlign=top;verticalLabelPosition=bottom;labelBackgroundColor=#ffffff;imageAspect=0;aspect=fixed;image=https://cdn1.iconfinder.com/data/icons/unicons-line-vol-3/24/docker-128.png" parent="1" vertex="1">
          <mxGeometry x="849" y="79" width="71" height="71" as="geometry" />
        </mxCell>
        <mxCell id="c7J5J3jAckgkYYv0fx0U-31" value="" style="shape=image;verticalLabelPosition=bottom;labelBackgroundColor=default;verticalAlign=top;aspect=fixed;imageAspect=0;image=data:image/png,iVBORw0KGgoAAAANSUhEUgAAAOEAAADhCAMAAAAJbSJIAAABvFBMVEUoJjIAx9QArUbkOSEBfO4R4e7/dVcE1lkMtv8Ay9gAskcoJTIMuP8Aq0UAfvMAzNnpOiAlJjIpHiv/c1QAf/RKSEgpIDETJTPsOiApFCIpIyopGjEAvP8BefIE2FUpIzIpGSYqHx8qGDEdJTKaMSkFjfMBd/QAqzwpIysrEzBtLC1iKy4rDBx6LSy/NSXqMxEKqvsqHhskNTQeVzizNCapMydWKi9JKTAeYGzcOCLSNyM3JzHLNiTlbVMJsr/1YUUVh5PtTzWJSUEpGyMeZ40gV3fpRCwJovkDg/AEduEiN1ocR30Cv08La8kBkdAge4YWWaQbYToUez4gP2sMkkKOLyolOUQOnakhSVSTMCoAJDMXg44daHM5LDUlMj7YWENJMTdbNzlxPz2aT0UQEiXyLQCxXWRkk8FIn9F/hKm8UlCVYVYfquaccIZXs7W7kIPLhnPJTEainJSzYGzifWF7qKciT2wlO1HXg20Hl/atlYkOfdRDVF1bS0kyXpA9YWQAupNEWEkDs5wwdUcK0rwEtGICl8cEz2cJw5MO2dUGu3gE3UgYVJgS5foZmpkqAB0UjlkRhkAiTzojPzWwEeZ/AAAMD0lEQVR4nO3d+VsbxxkH8F0BwmKFxCJZJ0ISAlk25QYbzOWjxWDANpjDB6FpUjt2i9MmdUKJ48QxvvDRFPiHO7NCsNqd3Z2ZnR356TPfn/LkecD+PO/7zuyMVo8lSURERERERERERERERERERERERERERERERERERERE5P8qavweTLycAowKUuO/VWtSYfWr1PHh3t5hkJGRzs67q6s9Pee6z18YL6nH5Fpwk6OX1lgR452JFlPq6sbGLk70Do/cXe3pPj+uFMpSRn+kc5IbgfD6Hxj9ssK5OosAaSKRgNqLE8OdPd0XxlVOztxoQA4wE0rxHiuiHgusdWMTw6vdgBkveKuEQJZCKX6uxdl4JAXQsd7Oc+NeKpMQyFQoxbuxiUcFbbk40nOh4I0yOSrLrIWginVERm1G6yY6u0vxAsO/hpbcqBxgL4RE8milPK+yLWTrnTKQtRA0KgURJJG4eHf8HrtC5ipAIEwy+61a4ufpiBDZe47VRJ4A5cAlxkKpcIF0Fo/T0jLRI7Goow7ogRBUcYyWqBkLro2tOqAcZi90RQTLTu/5uLtWbV3TAeXwffZC0KguiKCOI6qbMlYD5cDNHCuXLoVxN8S6xFh3nPrPbl2b0gM9EkqFLy+6Iba0rNIuqkagHNjIMaVVUrjgiliXGKE7e7SqBiAQtrLGleOa2Euz3gBgWDYIRz0SSoXSRMIVcYKc2LppAnoolFRpwlUVW3q/IFxSUUA5cMczIVhR3RETvV8SEbPmFtWEWa+AGtFVo7b8+QuCRs22ooCyzOwmCpWC1OuKODOJ/5jaqqwjgfKml0JJLbgjXp7EnUV0i8J4CgREtdfVLPon8WZRyVpUMDDl3UJzRJRcEafxiErSAgiEHjx4G4jqsItGnfH7MRrVGshDKKnxEXpiS8Tv9ztVUWm1BMph1pcYaKKLKl4Gwsm/2BLtgJ4cgBHEwjD1LII2hUSb05SSswF6cwBGEekbNeJAVJKXbIBy2JvjoZkY76QlakK/35JoD/Tu8MSOOF0W+r9CE3P2QFn27mhhJtLNYkWIJiYvBeyB8h2Pn2ncEy/7bYjJ+w4V9PjB25D4XZpGPRGaiEryphMwMMX1k/X4KgVRJzQSnYEcHkuNRPJG1Qv9V/TE5E2nGYSPNDmuQhpilVBPxAFyeqSpJpI2arXQf+VeBbjh2KJQ6NFtqR2xh5BoEFaIeEA5zG071BHx32dACkGjqtqLMjhAsB16eA9lScR4K0WXaaPQ/3VcSW7g+eQpb29pbIh9MFj9ahb6v/7rhoxXwsBULYCwUR88/ObRo8d/e9BHJfT/HWsGoZD3ZlHJ1T+2BYPBtratJ32OxghCGPkWU8jr7IQAntISbNt6+MB+4ZlBCv+BK6zBUqoBg8FTRwkGH9fZjuMMAuiP/BNXuFaDpbQKCNL2aMKuU02bBZHQ6+tgC2CbHgiIW9/ZEFELjT/yPeZSyuOiDQE8ZUiw7aE1ETWG/ukpzCa9lKsBMBg0CsEw/suSiCzhU8wHmhosNEggJFpVET2GP2AKA9yfaK7+CQmEjWoxi6gxxC4hjxt9I7ANDYTEi8hNw91+z3uhsaygRnyEesloxsVCyvGuFAcINo1vEH2KGEP8vVCW+e73V3+0BQLikwcYYxiZxDxWwDHMfVZA1IJqbtKIH3MrlHnf0TgDAXHL+O6tqUkjk9/iVtDTd4VQwC1HIBxFQ58am5QMOKXy2w3xgIBY/WxjbFIiINdHtqvbeEDQp1Wv+xlKCGaQACiHPXzdywR0nkFkn1Zv95F/E/C4XtEcVTBYHasq6vq0ep2J/IS9TZRLeD/HEQhF/dd2drq07Oxc6y+LEcJHfcgmjUR+IKogEG5y2u5L21ttwf6drvr6TH19SIv2n7NdO9dQyrYnx0Q98CnJGgPD+stA1kB1K7gzC0nmZABTU1YVMdjXYmzSCGmHyvyOhqXNrR0UrpJQfWh2p/+UHtn2uM+wzpAXkN/BqbR9Y9YOeJQqZDD4XUJfwoifvIDevaFvBG4+i2IAy8hj41ERpyt7BHkB+X24nVoMYQLhUHZdK49kuYgzRwUkXULL4fOxYSk/h1tBLaFM/U4/NIJtP5GY1nzfUzQoLOE6j2WmJC0SAcvp6odX/Ve+ujJJ7+P1wJa6RQEEmb229fPp06efP/1pKkAL5PLMnf+IP4PVyfzyHAhPO79JYhXwRMrhkTR1mxZYH/oRAk//Si/k0qOlOVphqPgLBD6nrmH4Jo/NPk85hGBBffbi7W9A+HO4gY4Y5rKOpq7TAUPFZy8b29sXdn/bDTeAUBjD6zyGkGir16WYAb5GkKamM68+NdAYw1M5HsD8PE0JM5n19g+NGrDZ53vdUAkJkhNQUufIfaHim9ftWgEbGwHQVymiZsTdF8NTm1zOTCmKEmZmX1R8jQtQqCsiNjIsr/E5FOaJdwpQwLcVX2OjT8uZF58ayJANYT4VBJs9aQkz9S8+nADLJQTEBnOsZzIAdheV0/XhAOlCWryhK2ClhED47hPCCJTmYobh3hLm1KLg2EtWwlBovV0PrJQQEPeQwoqzksr/uJPjA5RSH4mEYIn50KhP04nwvY3QJOYGlCSirSIz+7q9CnjcpIYdwylr3IBk60zxWbsBeNKkMHZ9WhWOFSR65i7eaDQAdU2q9SleEXm2KNHzTPGNCdhYVULcPh3lCEzddlVBQ5OCfG5AkibNmGbQ2KSY6+ko17dmUthPbJkucwWNTWqz79cKWLqOW8FQ/XsE0NSkzqO4wfe9p9Q8bgmLLz+YgaYmdd4yOAOlAdwxzNxAVLBquz8pYvNnBJQGcMcw8xYlRDQpJL62BnL6GPQkBUxgcR1ZwgUU0GZB5XJvWBXs030RWUL0GFoT+QOxP6vI3EAtM4i9wpZYA6CUxzz8Zl6im9RSiJrFm9xnUIJ3+XhNmkHthbZCsKLuVe+L92sC3MbdK9BCqzEsE30v9EDu337Vgn02zLwjF8Jh3KsxEP8CI/MGudLY+iDxzLu9T7BXP/3n95oACT6uKP4XVUT7EpaNr1/t7b16f2aoozZEbOH87/tmot1CozPC+HxLNSEWcM/383mlY9n59GubWhBxj07R+bwkIYhkwqalNHch5mf3GhAQz+7aXrNhELlXEe9jw1AZCHJ215XQ17TLm4h1RxP6OHD8Ax3LroQ+H29iHuMlqNDH/MkPKB277oS8q4ixHUb1QJCzS+1uhJDI8xuGzpfBRiAkuhL6mpbTHInbTsLorQHTD+mINEKuRMftMHrLWEGYjiVXQp7EksOFPhoIiEOuhByJDnelVkBAPMB+8q4t0f7sZA3UiNqSSgcExP0YF6Lthm8HhMQFSHQ4AdecaCeMLqZsf7bcqJSDqBF5NOqA9SONE1CS0ocuBpEX0fo9GvsWPSIOgkalblNAXFE8/yZX3mrDjy46A2EVF9rp2xQSVa+JKQthdLGE9fOQSA+ExKzXRLQwuqjgCWGjuikiIMa8JaoWQAkTKEkxdaHJXRXVmJfCbYtVFBsIiIM+l8RBD4nIB+/ookoABMTD5s+XWLpu3iyiiwUiIKziikui5Nkslsw3bdG5gtNOb0os5pbo2SyajxbRObIWLUdJuyQ2e9WoJmGICihJWWX/8yQahaG5beIWLScb23Uj9IyYqv46XmjuOiUQ3jIeuFpSPSLmqw7A9BXUEssuN7kwNjUfevChRtVXKl0C4Xpz6GbB8YSYvxVi0qKVxGJLK/R1bGo+YE7UCxkAYRlVN8bmQ9azqBdexzkQOkdJp4fojcwbdeBEyAgIEzs7uEyNPGD7uU1FGKpn0aInyaaVg+VmqjNHM9v3GY6uaUL1t9lVsBwlllYPlleaKUo5xLJRKxdR86yBMEqsI3a4tA+QZMwmlivqkZB5BY+TjXV0DA5ptSRgMmxUTRjyDqglG0uns4MHu/srYDLxoOzeZ9CEnrSoIQpkKoOHB0vLANpcptpgh1jti/DKe978CahHUTRnOqYC6dDSMrBqWDh6xiwzG8XtWzwqaAiUxtIdIKCum4OH0Lu0u7sMsg+ysrKyP8juuj/PdB8kjwK4wBuDxYXos+XU5l9HEBERERERERERERERERERERERERERERERERERERER8Sz/A4shcr2JX4iLAAAAAElFTkSuQmCC;" parent="1" vertex="1">
          <mxGeometry x="850" y="450" width="70" height="70" as="geometry" />
        </mxCell>
        <mxCell id="c7J5J3jAckgkYYv0fx0U-32" value="" style="shape=image;verticalLabelPosition=bottom;labelBackgroundColor=default;verticalAlign=top;aspect=fixed;imageAspect=0;image=data:image/png,iVBORw0KGgoAAAANSUhEUgAABAoAAAMMCAYAAADaWkW/AABRnElEQVR4XuzdDZxcZWHo/2h7e9v+e+/tvbdevdnZECitKL5Q+6JVa7FaW2rrbWtT2JkEECHyIiDyKgINKqCCiMiLoKhgfQMpiqKIqBTEF0RABBURkp3Zt+xukt1ks5t9Pf95RonJc2Z2Z3ZnN3s23+/n8/vUkjnPnN1sds7zzJxzli0DAAAAAAAAAAAAAAAAAAAAAAAAAAAAAAAAAAAAAAAAAAAAAAAAAAAAAAAAAAAAAAAAAAAAAAAAAAAAAAAAAAAAAAAAAAAAAAAAAAAAAAAAAAAAAAAAAAAAAAAAAAAAAAAAAAAAAAAAAAAAAAAAAAAAAAAAAAAAAAAAAAAAAAAAAAAAAAAAAAAAAAAAAAAAAAAAAAAAAAAAAAAAAAAAAAAAAAAAAAAAAAAAAAAAAAAAAAAAAAAAAAAAAAAAAAAAAAAAAAAAAAAAAAAAAAAAAAAAAAAAAAAAAAAAAAAAAAAAAAAAAAAAAAAAAAAAAAAAAAAAAAAAAAAAAAAAAAAAAAAAAAAAAAAAAAAAAAAAAAAAAAAAAAAAAAAAAAAAAAAAAAAAAAAAAAAAAAAAAAAAAAAAAAAAAAAAAAAAAAAAAAAAAAAAAAAAAAAAAAAAAAAAAAAAAAAAAAAAAAAAAAAAAAAAAAAAAAAAAAAAAAAAAAAAAAAAAAAAAAAAAAAAAAAAAAAAAAAAAAAAAAAAAAAAAAAAAAAAAAAAAAAAAAAAAAAAAAAAAAAAAAAAAAAAAAAAAAAAAAAAAAAAAAAAAAAAAAAAAAAAAAAAAAAAAAAAAAAAAAAAAAAAAAAAAAAAAAAAAAAAAAAAAAAAAAAAAAAAAAAAAAAAAAAAAAAAAAAAAAAAAAAAAAAAAAAAAAAAAAAAAAAAAAAAAAAAAAAAAAAAAAAAAAAAAAAAAAAAAAAAAAAAAAAAAAAAAAAAAAAAAAAAAAAAAAAAAAAAAAAAAAAAAAAAAAAAAAAAAAAAAAAAAAAAAAAAAAAAAAAAAAAAAAAAAAAAAAAAAAAAAAAAAAAAAAAAAAAAAAAAAAAAAAAAAAAAYDHrWrv8t0v53B+0F5a/rLQ6d3Bxdevrim2t/1ip/L/Df6v8Wfkx4bHx9gAAAEAGtedX7FfMtx7Wns+tK7Xlbirmc4+U//fW8v9NGumX2zwSxghj/WLMFfvFzwcAAAAsIusPW7mylM+9uZRvvbE8se+KJ/zzUFd4rvCc4bnj/QEAAAAWWHFN6/OKba0XFttyP6oykV/Ywj6EfSnvU7yfAAAAwDzpOLzlf7fncyeVJ+f3pybri6f7wz6GfY33HwAAAGiC0urc/sVCy5XlSfhwlYn5Ym047HPY9/jrAQAAAGahvW3FgeUJ983lpqpMxLNS2Pebw9cSf30AAABAHboOX76i2Nb68V9OsuOJd1abCl9T+NrirxcAAACoou+o3/tvpULuovKkekeVifZSaUf4GsPXGn/9AAAAQFmybtnTi/nWI4uFXHeVifXSrPK1th4Zvvb4+wEAAAB7rQ2HLX9peeJ8X2oivfd0X/gexN8XAAAA2Kt0FFpy5UnyJ6tMnPfWPlk6PNcSf58AAABgSSutyv1WMd96bnlivL3KZHlvb3v43oTvUfx9AwAAgCWnva3lX0v53IYqE2TtUvgehe9V/P0DAACAJaEj33JQsS13dzwh1gyVv2fhexd/PwEAACCTfr7mmf+nvS13bXnSO5WaBKvepkr53DXhexl/fwEAACATHl114G8UC62nlie5g1Umvppdg8W21reG7238/QYAAIBFa8NhLa8tT2ofqzLRVXN6LHyP4+87AAAALCobDt3nOcVC7itVJraaj8rf6/Vtyw+I/x4AAABgj2rPr/ifpXzusvLkdTw1mdV8Nx6+9+uPXPm78d8LAAAALKhk1bJfK+ZbjytPVvuqTGC1sPUVCy3Hhr+T+O8JAAAA5l1HvuWV5cnpw1UmrNqzPVxanTs4/vsCAACAebFhzT77liejN1eZoGoR1Z7PfS78XcV/fwAAANAUvaue8TvFttYLy5PQHfGkVIu28t9V6wXh7y7++wQAAIBZSZYte1p7vuXw8qSzq8pEVNmoM/wdhr/L+O8XAAAA6tZRaHlJeZL5vSoTT2WxQu67pcNyL47/ngEAAGBapcNzLe2F3CdSE00tiUr53A3Fw1qXx3/vAAAAsJv1R678zWJb69vLk8mheHKpJVf577jl7PB3Hv8cAAAAwLL2Qsu/lCeO66tMKLWka1lfasu9Pv55AAAAYC/VsbrlheUJ413pCaT2qtpy3yy15V4Q/3wAAACwl+he9axnlPK5a8qTxMnUpFF7a+Wfhdarw89G/PMCAADAEnX/2j/+L8V8yynlSeFAlYmiFNrSXmh5S/hZiX9+AAAAWEJKhdwh7fncT6tMDKVUpXzuJ6W23N/GP0cAAABkXOfq5c8uT/y+HE8EpXpqz+du6zi05Q/jnysAAAAyZv2RK3+3mG+9tDzZG48nf1KDjRXzLe97YtV+/yP+OQMAAGCRS1Yt+7X2tpY3lSd3vVUmfNJc6m3P59Ym65Y9Pf65AwAAYBEqteX+stiWe6jKBE9qWu353IPFfOsr4p8/AAAAFon1h61cWWrL3RRP6KR5rdD62fCzF/88AgAAsIf0rHnm/1cstLyrPGkbSU3ipIWp/LPX8o7wsxj/fAIAALBAkmXLnlZqy60uT9I6q0zcpIWvLddRKuTy4Wcz/nkFAABgHpXyuT8rFnLfTU3UpEVQez737WKh9U/jn1sAAACarHhY6/JiW+vH44mZtAibCj+r61etfFb8cwwAAMAcrT9y5W+2F1reVp58basyIZMWc9va23JnPX7I/v81/rkGAABgFkr53D+XJ1tPVpmASVnqiWJb6z/GP98AAADUqdSWe0F7PveNKhMuKbOV8rk7S4Xc8+OfdwAAAGroalv+e8V869XlSdVEPMmSlkgTxULLlR2Ht/zv+OcfAACAX0oOXvbr7fncyeVJ1JYqEytpKba5/DN/UvjZj/89AAAA7NWK+da/KeVzP6kykZL2hh4tFlpfE/+7AAAA2Ot0HNryh6VC7ktVJk7SXljrraXVuf3jfycAAABL3hOr9vsfxbaWS8qTo7H0ZEnaqxtrL+Te+3hh//8e/7sBAABYcpJ1y55eKuSOKU+GeqtMkCT9slI+t7HcG8O/mfjfEQAAwJJQzLe+ojzxeSCeEEmartYftLeteHn87wkAACCznsz/332KhdbPpidAkuqv5dNdhy9fEf/7AgAAyIyutct/uzy5eUd5kjOSnvRImkXD7fncuvBvK/73BgAAsGgly5Y9rVTI5YttuY4qEx1Jc69YzLceFv6txf/+AAAAFpXiYa1/0p7PfbvKxEZS02v91obVy18U/zsEAADY49avWvmsYr7lY+XJy1R6MiNpHpsqtuWue7Jt32fG/y4BAAAW3OOH7P9f2/O5M8uTlW1VJjCSFqjyv8OtpULujEdXHfgb8b9TAACABVFsa/3H8gTliXjCImmP9nhxdevr4n+vAAAA86ZUyD2/lM/dWWWCImnx9NX2thUHxv9+AQAAmqa0Kve/ioWWK8sTkIkqkxJJi6+J9kLu8vBvN/73DAAAMGvJwct+vdSWO7E86dhcZSIiafG3qdjWenz4txz/+wYAAGhIsdD6mvIk49EqEw9JWast96P2Qsur4n/nAAAAMyqtzu1fzLfemppoSFoKfb49v2K/+N89AABAyuOF/f97eyH33vJEYqzK5ELS0mm0lM+9u++o3/tv8e8BAACAZcm6ZU8vFlqPKk8cNlaZUEhaqhVy3cV865Hhd0D8ewEAANhLtbeteHl5ovCD1ARC0t7UfRsOW/7S+PcDAACwF+k6fPmKYr7l01UmDJL23j7ZUWjJxb8vAACAJaxr7fLfbs/n1pUnBMNVJgmStL2Ybz23tCr3W/HvDwAAYAlJli17Wvng/7DyJKBYZWIgSbtVyuc2tLe1/Gv8uwQAAFgCNqxe/qJivvVb8URAkmasLXd3R77loPj3CgAAkEFPtu37zPJB/nXlg/2p1MG/JNXfVHtb7tqfr3nm/4l/zwAAABnw6KoDf6NUyJ3Rns9trXLAL0mzbbDY1vrW8Dsm/r0DAAAsUsXVra8rH8z/vMoBviQ1q8c2HNby2vj3DwAAsIi0t604sJhvuaPKAb0kzU+F3Fc2HLrPc+LfRwAAwB5UWpX7X+2F3OXlg/aJ1EG8JM1/46V87rL1R6783fj3EwAAsICSg5f9erHQekL5IH1TlQN3SVro+oqFlmOTVct+Lf59BQAAzLP2/PJXF9tyP6pyoC5Je7qHS6tzB8e/twAAgHlQPLT198sH4Z+vcmAuSYutmzes2Wff+PcYAADQBH1H/d5/K+Vz7y4feI9WORiXpMXajmK+9YLeVc/4nfj3GgAAMAvJumVPLx9kH1nMt/RUOQCXpKzU2Z5vOTxZtuxp8e85AACgThsOW/7S8sH196sccEtSNivkvttRaHlJ/PsOAACYRvkgOlc+mP5U6gBbkpZIpXzuhuJhrcvj338AAMAuSqtyv1Vqy51XPogejg+qJWkJNlTMt5y9/siVvxn/PgQAgL1esdB6aCmf21DlQFqSlngt60ttudfHvxcBAGCvtOGw5X9UbMvdnT5wlqS9rrtKbbkXxL8nAQBgr/DzNc/8P+353IfLB8ZTVQ6WJWlvbbKYb726e9WznhH/3gQAgCXp0VUH/kb5IPi08sHwYJUDZEnSL9rSXmh5y/1r//i/xL9HAQBgySgf9P59+eD3Z1UOiCVJVSrlcz8pFXKHxL9PAQAg0zYcus9zyge8t8cHwJKk+mrP527rOLTlD+PfrwAAkCnt+RX/s5TPXVY+yJ2ID3olSQ03Vsy3vO+JVfv9j/j3LQAALGrJwct+vZhvPa58UNtf5UBXkjS3etvzubXJumVPj3//AgDAorOhreWvygexD1c5sJUkNbO23EPFfOsr4t/DAACwKHQetry1fOB6c+pAVpI0vxVaP9tRaMnFv5cBAGCPqJxm0Nb61vLB6lDq4FWStCC153Nby52UrFr2a/HvaQAAWDDFNa3PK+VzD8QHrJKkPVXrD9oLK54b/74GAIB5lSxb9rRiW+vx5YPSHemDVEnSHm4k/I4Ov6vj398AANB0649c+bvFfOutVQ5MJUmLqbaWL4Tb1Ma/xwEAoGk6Vy9/dvng87HUwagkabH22Pq25QfEv88BAGDOioXW15QPOAeqHIRKkhZ35d/drX8T/14HAIBZK+VzhfKB5niVg09JUjaaLLXlVse/3wEAoGHFfOtx4QCzykGnJClrtbUeH/+eBwCAuhXzLaekDjIlSZmuVMidEf++BwCAGRULrUfFB5eSpKVRez63Nv69DwAANZXacq8vOt1AkpZyk8VC66Hx738AAEjpKLS8pHwAOVrloFKStLQaK65u/Yv4dQAAAHYqHZ5rKRZy3VUOJiVJS7BSPrfxyfz/3Sd+PQAAgGXrj1z5m+WDxu/HB5GSpKVdez73YNfa5b8dvy4AALCXKx8sXhEfPEqS9o7a23LXxq8LAADsxTYc1vLa+KBRkrR3Vcrn/jl+fQAAYC/0ZNu+zywfIPbGB4ySpL2uzeFaNfHrBAAAe5livuXTVQ4WJUl7Z5+PXycAANiLFAutr6lykChJ2qtr/X/x6wUAAHuBX97l4In0AaIkaS+v2LPmmf9f/LoBAMASV2rLnV7l4FCSpHBhw3+LXzcAAFjC1h+58nfLB4Kb4wNDSZJ+2VD3qmc9I379AABgiSoVchdVOSiUJGln7YXc5fHrBwAAS1BpVe5/lQ8Ah+IDQkmSokbXr1r5rPh1BACAJabY1vr2KgeDkiSla2u9MH4dAQBgCXn8kP3/azHf0pM6EJQkqXpbelc943fi1xMAAJaI9kLLEVUOAiVJql2h9YT49QQAgCWifMB3V+oAUJKk6bs/fj0BAGAJaM+v2K/KwZ8kSTNWasu9IH5dAQAg49oLufPjAz9Jkuqr5X3x6woAABlXPtB7JH3gJ0lSXbXHrysAAGTYhjX77FvloE+SpLrrWN3ywvj1BQCAjGovtLwlPuCTJKmRSm258+LXFwAAMqp8gHd7fMAnSVIjlQq5e+PXFwAAMihZtezXygd4g/EBnyRJDTZWWpX7rfh1BgCAjOnItxxU5WBPkqSGK7Xl/jJ+nQEAIGOKhdYT4gM9SZJmVVvr2+PXGQAAMqY9n/tw6kBPkqRZVGrL3RS/zgAAkDHh4lPxgZ4kSbPs0fh1BgCAjCkf1A1UOdCTJGk2jd+/9o//S/xaAwBARjzZtu8zqxzkSZI06zpXL392/HoDAEBGbFi9/EXxAZ4kSXNpQ1vLX8WvNwAAZEQpn/u7+ABPkqS5VCrk8vHrDQAAGdGez62ND/AkSZpLpULujPj1BgCAjCi2tb41PsCTJGlOFVreFb/eAACQEe353LrUAZ4kSXOolM9dFr/eAACQEeFdn/gAT5KkudV6dfx6AwBARoR3fdIHeJI09zqOfk7Se8GhSd8lb0i6z3hV6s+1hGtr/Xj8egMAQEZYKJDU7EpHHZBs+9oNydTEeLKrsc7Hk953F1KP1xLMQgEAQHZZKJDUzMKnCMaKP9ltgSC2+SNnprbTEstCAQBAdlkokNTMhu75XLwukDY1mfS9/5jUtlpCWSgAAMguCwWSmlXvhW3xkkBNU2M7ku4zX50aQ0skCwUAANlloUBSUyq0JmMbHonXA6Y11vGzpHTk/umxlP0sFAAAZJeFAknNqO/So+N1gLoMfuGDqbG0BLJQAACQXRYKJDWjHT+9L14DqM/EeNJ9xl+lxlPGs1AAAJBdFgokzbXu018ZT/8bEhYZwqkL8bjKcBYKAACyy0KBpLk2ePOl8dy/YZs+fHpqXGU4CwUAANlloUDSXBt94ofxvL9hk9u2JB3HvjA1tjKahQIAgOyyUCBpLnUc/dwkmZqK5/2zMnT3TanxldEsFAAAZJeFAklzqfeifDzfn5ON7/rX1HMog1koAADILgsFkubSwI3vjef6czLe9fOkdMR+qedRxrJQAACQXRYKJM2lkQe/Hs/15ywsPsTPo4xloQAAILssFEiaS5NbN8Xz/N1Mbh9MRh6+O/7P05oa25F0veWlqedShrJQAACQXRYKJM22zhNfHM/xU4Z/cEdSWrMyGet4PP6jaY089I3U8y1EnccdlGx856pk09WnJFuuPy/ZcsO6pP+qkypfa/xYTZOFAgCA7LJQIGm29V3yhnh+nzJ4y+WVx/acfUgyNT4W//G0+i5bm3rOZtdxzIFJ/+XHJUPf/HQy3luKd+FXpqaSbV/9WFJcvU9qDFXJQgEAQHZZKJA02wY+9754Op0SJuFPPX7w5kvjP57WxKaupHTUs1PPO6cKK5Kec15b3vdLktHHf5AkU5Px005r8NYr02MqnYUCAIDsslAgabYNf//2eB6d0n36wTsfXzpy/+nfta9i623XpJ630bpOeVmy+SNnJtu/96VkctuW+CkaEj4VET6FED+HoiwUAABkl4UCSbNtpkn/1Nho6qP69ZyusJvJiaT7zFennnu6OtY+r3LawtA3PjnjPs5G38VHpJ5TURYKAACyy0KBpNkUTgmYyejjD6S2CzV6S8Udj32/cspAPM7OfVmzMtn4jtcng7d8IBl94qGGTydo1KYPnZLaB0VZKAAAyC4LBZJmUzjPfybb7vh4artQ11v/ouELG4brIew2xqmvSDZff27lrgpTI0Pxw+dV3/uOSn1NirJQAACQXRYKJM2m8K76TDZd/ZbUdk81+PnL44fPaOSHdyXb770lmejvjP9o4UxOJB1vekHq61GUhQIAgOyyUCBpNm390ofiKXRK92m/upBhXOnIPyhP+DviTRa97ffcnPpaVCULBQAA2WWhQNJsmuk6A1Mj26a9rkCo/wPHxpstamFho/O4g1Jfh6pkoQAAILssFEiaTeO9xXgevZsdj96b2qZa4XFZMDU63PDdF/bqLBQAAGSXhQJJjRZOG0impuK59G7CqQnxdtXqPuNVlfP+F7v+K09M7bumyUIBAEB2WSiQ1Gg9Zx8Sz6NT+j94fGq7Wm274/p483kxuX0wGV3/cOWiiI3cQnHb7R9N7bNmyEIBAEB2WSiQ1GjhbgYzCbdAjLerVcexLyxP4rfGQ8zZeF8pGfrmp5P+q05KOt/8pzufL9y2sV6jP7s/KR2+b2qfNUMWCgAAsstCgaRG2/rFq+L59G4mh8OFDFtT203Xlk+9Kx6mYZWFgbtvrNy6sevkl6SeI7Tp2tPizWqaGOhLOk/4k9QYqiMLBQAA2WWhQFIjldasnPlChj/+dmq7mSodsV8ysbknHmpa4VSC4fu+nGz+yJlJ1ykvS40Z13P23yZTYzviYaqaGh9Lev7t/6XGUJ1ZKAAAyC4LBZLqbvU+ydA3PhXPqVPCNQdS29ZRPbdLDNcYGLz50qTnvNdV9iceo1adx78omejvjIeradM1p6bGUANZKAAAyC4LBZJmKnyMf8sN65Kx9h/H8+mqNn/s7akx6q3/8uN2/2TB5EQy8uDXK58amO1pAOEuDaNP/PBXY85g6+3XpcZQg1koAADILgsFkqrV/ba/qbxzP9b+aDyPnlHvBYemxmuo1ftUThPYeP4/Jx1vekH6zxup0Jps/96X4l2saeSRe5LimpXpcdRYFgoAALLLQoGkSuXJ+cZ3rkq2fuUjlYsCzkXn8X+UHn8PNfiFD8a7V9N418+TjmMOTI2hWWShAAAguywUSHtv4SP5fZe+sXKngMltW+J586xMDg2knmdPtemqk+Pdq2ly2+a6LoioOrNQAACQXRYKpL2r0lHPTvo/eHzlbgH13gGgETt+el/qOfdEG8//p2RqYjzevarC48JpDvEYmkMWCgAAsstCgbT06zj6OUn/VSfN2+LArrZcf17q+Re6rre8tPIJgXptuvotqTE0xywUAABkl4UCaWkWFgfCR++HH/haMjU+Fs+Nmy48x+AtH0iKhRWpfVnIOo5+bjLW+Xi8ezUNfO6S1BhqQhYKAACyy0KBtHTqPO6gZNPVpyzY4kAyNZns+On3ks3Xn5t0HPvC1P4sdKXD9012/Pjb8V7WNHTXZ1NjqElZKAAAyC4LBVL26z7rNcnIQ9+M58HzY2I8GfnhXcnm685KOo89KLUve7JwUcZ6jTz8n0nJbRDnLwsFAADZZaFAynabrj2tMnmfT+G6BsM/uKNyKsNivX3gwI3viXe7prH2R5OONx6QGkNNzEIBAEB2WSiQslvfZWvjOXDTVBYH7vty5Q4J4U4J8XMvpvqveHO8+zVNDPQlnSe+ODWGmpyFAgCA7LJQIGWz8M5+I1f2r8fUju3J9u/cWlmAKB35B6nnXIxVboNY5/UYpsZGk55z/z41huYhCwUAANlloUDKZls++c54Hjwruy8O7J96nsVc1ykvb2ixZNM1p6bG0DxloQAAILssFEjZLNxtYC5GfnR30n/5cZlbHHiqcJeF8e4n4y+rpu333JwaQ/OYhQIAgOyyUCBls8nB/nguXLf+K09MjZe1djx2X/xl1TQ5vG3R3aFhyWehAAAguywUSNlscmggng/XLdxKsfe9hyfFworUuFmo+6y/jr+kaQ3d9dnUGJrnLBQAAGSXhQIpm42ufzieDzdsor8jGbjp4qTzhD9Ojb+Y23j+P8dfyrQGb740NYbmOQsFAADZZaFAymYDn7kong/P3uREMnz/VzPzKYNwu8bJ7Vvjr6KmcLHGeAzNcxYKAACyy0KBlM3CZHliU1c8J56zrHzKYOAz7453vaZwjYLSEb+fGkPzmIUCAIDsslAgZbee816XTI2OxPPi5phc3J8yCHdrmNjcE+91TZs/cmZqDM1jFgoAALLLQoGU7XovOLTyjvl8WqyfMth07WnxrtY03rMhKa5ZmRpD85SFAgCA7LJQsHgLH5XuOuklSfcZf1Up/O/SEfulHid1n3ZweSK8Pp4bN9/kIvuUQXniP9bxs3gva9r0oVPSY2h+slAAAJBdFgoWSeVJ18Z1/1S5OvvIw3cnEwN98Rxnp4n+zmToP29M+i5bm5QO3zc9lvbKOo45MBn+3m3xj8u8CD+D4ec13oc9Ud8lb4h3ryafKljALBQAAGSXhYI9W+eJf5YMfv7yZGLLxnhOU5fJwf5k8Ob3Jx1vPCA1tvbOus98dbL9npuTqYnx+MelKbbdeUP6562wIuk4+rmpfVmodvz0vng3a9r80belttc8ZKEAACC7LBTsmTqPO6g84fpE0yZzYcFg0zWnpp5He29hEWrrbdcmUyND8Y/LrIRTGza+4/Wp5+l6619UJuob37kq9WcLVbioY70mtvRWLoQYj6EmZ6EAACC7LBQscIXWZPN1b5u3i8+Fj553HP2c9PNqry280x9uJRgmyLMyOZFs/eLV6dsLrt4n2fKpdyVTY6OVh3W95aWp517Ihu/7crTjtQ185qLU9mpyFgoAALLLQsHCFSZsww/cGc9Zmm6s/dGk8/gXpZ5fe3fhehbhUydjpZ/GPzI1ja7/UdJz9iGpsSqfInhsl4/7T00lpT187n/36a+sLGrUY3L71j16qsRekYUCAIDsslCwMIV3W8e7nojnK/MmPFfH2uen9kMKn2rpvagtGXnw65UJfjXhdIXwaYHUhf8KK5ItN/xbMjU6vNvjJzb3pJ9nDzR094277dd0Bm+9MrW9mpiFAgCA7LJQMP91nfLy8kSqO56nzLsdj31/j7/Lq8Vd1ykvS7bedk0yOTSw8+dm+7e/kHSe8Cepx4ZbMNa6aODoz+5PPX5PFG4hWu91P6bGdvjkzXxmoQAAILssFMxvYSIy3luM5ygLZvALV6T2SUq1ZmXSc/bfVha14j8rHXVA5d33qfGx+Mdrp+3fuTW13Z5q21c/Fu9eTeEODvH2alIWCgAAsstCwfwV3s2v9Q7sgpmaTHrenj7HXKqn/g8eX9etO5vxMf7waYD4v82msDgXnxpR0+RE5XoL8RhqQhYKAACyy0LB/DX4+cvjackeMfLIPal9k2Zq8AsfjH+Uatr8sbNT2zdS3yVvqJwqE//32RYWLuq1/XtfSm2vJmShAAAguywUzE895/xd3Vdgn2+VaxXEt7aTpqnv4iPiH6Np9V18ZGqMett4/j8lU6MjlcItF5/67+GiicPfvz3Z/LG3N/yuf7ijQbizQb16znltagzNMQsFAADZZaFgHiqsSMY2PBLPReoy3v1kMvgflyV97zsq6b2wLdn8kTOT4R/cUfPq9NMqb1O5RoELGqrBRh75VvzTNK3uM1+dGqOeus94VXlCP/ircc74q51/1vf+Y3Z5hiSZ6O9Ihr7xqaT/8uPquqPH4M3v32376YSvN95ec8xCAQBAdlkoaH79V50Uz0NmNN6zvvLx67DIEI8X6j7rr5Ox0mPxZjVNDPQlvRflU+NI9TTdhQur6Tj6OakxZqrzxBen7gay6aqTd/55uMtCTVNTyej6hyunR/RecGhSOmK/1Pgdx74wmRobjbesyb+XJmehAAAguywUNL9GP00w/MCdSenIP0iNExcmY6NPPhxvnjLyo7uTzuP/KLW9VE8db3pB/CM1rfAR/3iMmQrPMdb5eDxUsvXL1/7qcWtW1n+rw9GRZOSHdyVb/v38yqJasdBaGWP7vZ+PH1pT+Hf71HZqQhYKAACyy0JBcwsfwW5EuKJ8uP1cPE6twruk4fSEqiYnkoEb31vzUwlSPfWc+/fxT9a0xoo/SY0xXWFRbPTxB+JhKuILb4axZyN8omb7PTcnQ9/4ZPxH09p83dtS+6tZZqEAACC7LBQ0ty2ffGc895hWuOd7PMZMVT6yXZ4I7Sp8hDtcFC5+rNRo4RoAjRh+4GupMWoVbhk68tA34iF2Ctch2PXxjXwioBkmBvuS0uH7pvZbs8hCAQBAdlkoaG7hVmuNGLjxPakx6iksCiS//Fh2mKiFj3LHj5Fm08BnLop+Sqe37faPpsaoWqE1Gbr7pnjzlF1Pwxn49IXxH8+7udzBQbtkoQAAILssFDS3cIG1Rmy/95bUGPUW7l0fPsGwR86rLqxIuk9/ZdJ/5YmVieW2O65Phr93WzJ8/1crbf/OrcnW26+r/Fl4TOeb/zQ9xiIt3Eqy57zXJZuuOTUZvPXKZOiez1WuI7Hjx9+pFO5Csf1b/1H5s/BR9Z6zD9nttn5Zr9GP62/5xPmpMaq19Usfijetqvus1+zcpvc9q+M/nnfhAonxvmsWWSgAAMguCwXNLdy9oBFTo8NJxzEHpsZZjHWe+GfJ5o+fk4w8fHcyNTIUfykzGiv9NBn4zLuTzuNflBp7T9d1yssqixphIaCRK+U/ZXJ4W+Wc+N73rNlj14joeOMBSd/FR/xi4eZrNyRDd9+YKuzjU4s5tU5VCX+/jei79I2pMeLCRQbr1f+BY3duF35WFtrQNz+d2n/NIgsFAADZZaGguU30d8bzjhmFe8PH4yya1qxM+i97U7LjJ9+Nd3v2Jicqk9auk16Sfr4FLJyLHm5lOfrzB+M9nJPxrieSTR8+fWE+ZVBordxWc+TBr+88FaVePf/2/9Lj5cNi14b4odOq3GWgyjhPFT5R0oh44WG86+fxQ+bVbK4boipZKAAAyC4LBc1trP3ReN5Rl773H5Maa4+2ZmWy6drTZrXwUa+p8bFk8OZLk9IR+6Wffz4rf22bP/q2ZGJzT7xLTRWu2L9x3T+mn79JhbFH1/8oftq6hTtoxGOGxY16b0n4lOnu2tF7Ub6h8Sa3bkrdKnTjO15f+eTNQgk/G/HXoVlkoQAAILssFDS36a7oPp0wEaqc615lzIWu98K2ZKzjZ/Euzpswoe5661+k9mM+6r2orfKO/4KZmkwGb7m8uZ8uKI8VxkympuJnq1s4VSI1bv4Xd9RoRJjYx2M8Vc85f5dM7dgebzKt/g8enxqnsl9v/tNk4LPvSUaf+GG8SXOVv6ddJ/956vk1iywUAABkl4WC5rb1i1fFU4+6hVsc7snz90tHPbtyUcI9IUxcw7vP8T41q/CudzjFY08Jd6aY7p33egunSwzf9+V4+IaNbXgkNXZo4zv/JX7otEafeCg1RqjrlJdXFhEaEe5wEI9Trcq1Mq4/Nxl55FuV01iaKdy1JH4+zTILBQAA2WWhoLmFd6znInyUvOPo56TGne+6Tzs4Ge9+Mt6dBRU+oh6fn96Muk79y2Ss4/H46RZcuBZCuOBgvH91V1jRlEWCoNaEeNOHTokfOq1wd4t4jM7jDkrGN7bHD53W4OcvT41TTx1rn5dsuvqUysUZ53p6QljYCIsQ8XNollkoAADILgsFza20ZmUyOdgfz0EasuPReyvvHMdjz1fhFnST27fGu7FHhMWC3gsOS+3jbOu94NBkamRb/DR7zMgj98z67zZcz6FZtn7x6tT4v3iO98cPnVZ8K8GwENLodRO23f7R1H7MpnCti/CplK1f+UjDdx8Z7y0m3We+OjWm5pCFAgCA7LJQ0Pwq54/P0fD3bmvuee01qlyRfmoyfvo9KpyG0IxrFvS976iGLqS3ULbdeUNqX2cqnO/fzL+nLTf8W+o5QkP3fC5+6LQqd3f45bZhAWTkR43dWnHoP2+s3Lkh3o9mFE5/2HLDumTk4f+sXDizmnANha23XbNHPsWz5LNQAACQXRYKml/H2ucnk0MD8ZykYdu/9R/zNokK9V9xQlMnn80U3pWey90Qet+zpuHbBS6kRk+xGP3Z/fEQc9J32drUc4R2PHZf/NBp7fz0R/nndPu3vxD/8bQqpz8swGJYqPSGP6zcRnLgxvdUriMSLowY/v/w3+PHqklZKAAAyC4LBfPTpg+fEc+LZqXy7vM8LBaEW+stxnfbdzXwuUtS+11PPee8NpkaHYmHm5OJgb5kvK+UTG7bHP/RrITz4TuOfm5q36sVTp9otp7z/iH1PKFwQc1GdL3lpZXtwsf9GzHy4NdnfQqGMpKFAgCA7LJQMH8Nf//2eH40K81eLOg66SXJxGBf/DQNmejvTIbuvjHZ/PFzkr6Lj6gsPITbO4aLOYYL4m29/bpkvOvn8WYNmRrbkXSd/JLU/k9Xx5te0PBkNzaxpTcZuuszyZbrz6vcBSC+W0H4xEj4RMD2735xTlfd3/qlD6X2v1rhgoHNVu3uGuETHA0pf+3FNSuTLZ+6IP6Tae34yXeT0pF/kHp+LbEsFAAAZJeFgvmr45gDG776ey1NWyxYvU8y+vgD8fB1CZ9AGLr7pqTnvNfVvS8b1/1Tw+et72rbnZ9IjVmz8j6NPPTNeIj6TE5Urgux8fx/rvtrC4Xz4IcfuDMerS5hIaTz2INSY+5aeNe90YsxhtNewu0Yh77xyco7/dUKd1CInyvcHaIR4QKYjS4S7Km7emgPZKEAACC7LBTMbz1n/23TPga/7WuNXwQvbsun3hUPW5dwW76nPmY+m/o/eHzDE94gLE6E2+3F41Vr80fOjDevSzgvv/us16TGa6Qtn3xnPGxdBm66ODXWroVFmUaEC2nO9iP94e4X82m864mk49gXpp5XSzQLBQAA2WWhYP7rv+LN8Zxp1mZ7v/lQePd7amw0HnJa4arwYZIfjzWbus94VeVc/0aFxY14rLiwmDC5fTDedHpTk7+4DkIDnyCYrs3XnRU/w4zCdQ/icWY7ZuXigFXGqLfNHzs7HrJpwukgnW/+09RzaglnoQAAILssFCxMYYLfLFv+/fzU+PVUOae+ARNbNibdb/ub1DhzKbxzPzU6HD/VtMY2PJIaJy6cotCI8EmFRu88UE/hFJFG9bz9kNQ4T7X1Kx+OH17TzjsQzLJwzYT5EC7c2HXqK1LPpyWehQIAgOyyULBAhdvH3XtLPIeatf4rT0w/xzSFOwE0YnKwv/IJhHicZrTp2tPip5tR5/F/lBrnqTpPfHFjd3CYmkr6Lj06NU4zKh317MrFEBsx8Jl3p8Z5qnCtgbqUv6a53uovXKOh2SaHt1Uuchk/l/aCLBQAAGSXhYKFK5w7PpcL++0qXAgvXP8gfo5aNTQJLE+6w0UI4zGaVqG14Qsq9l9xQnqcX7btjo/HD5/W4M3vT43RzBq9XsHwD+5IjfFU9d45Iny0P9620UbXPxwPO2e9F7alnkd7SRYKAACyy0LBwhbe9R39+YPxfGpWxrufrLyDHT9HXDg3vJHb+A189j2pMZpd3yVviJ92WoNfuCI1Rih8Pxu5SGL43le74n8zC3cyCNc/qFe4M0Y8RqU1K+v+pMSOx76f3r7Bwt0Smm3rbdeknkd7SRYKAACyy0LBwtex9nnJWOmn8ZxqVrbefl1q/LjBmy+NN6tprPPxygQ1HqPprd4nmdy2OX76mobv/2p6jHKbPnx6/NDapqaSnnP+LjXGfDT6ZP3vzofFgGqLF12nvCx+aE3bv/2F1PaNFG5ZOF96311IPZ/2giwUAABkl4WCPVM45368Z0M8p2pcefLbfdZfp8bftbHiT+Ktaup7/zGp7eer7d+5NX76mmq9Yz7yyLfih9Y0dM/nUtvPV0N3fSZ++ml1HP3c1BiN3K5w8NYrU9s3Urho5XwJd7oIn7KIn1NLPAsFAADZZaFgz9V10ksq55bP1cgP70qNvfM5Tv7z+OE1VT4CX+Wd7flq4Mb3xrtQ01jHz1Lbh09mNPIR/65T/zI1xnwVLlDYiI5jDkyNsfn6c+OH1RRubRhv30hhgWg+jTz0jabdhlIZyUIBAEB2WSjYs4XbxoXbx81VrU8VhAlkvQZv+UBq+/mskbsfhFM14u37P3Bs/LCaRp94KLX9fBbuStGIjrXPT42x7faPxg+rqe/iI1PbN1K45eZ823LDutTzaglnoQAAILssFOz5wu3jGrkgXzXhyv/xuKGhuz4bP7Smnrcv7G3sNn3olHgXahrb8Ehq+213XB8/rKaBG+f/Ao271ntRPt6F2qamqr7bHt6Fr1ethaJ6a/TOEUN339jwz+zU+FjlFIf4ubVEs1AAAJBdFgoWR+E2cvVe4b6acB54tclmvdcnmBodXpiLGO5SI+9ijzz0zdT2o0/8MH5YTb0XLext+ja+81/iXahpcrA/tX0oXFiyXtWucdBIIw9+PR5yWpuuOjnZ9OEz4v88o/A1hTtVxM+vJZiFAgCA7LJQsHhq9OPqse4zX73beKXyxL/e2yIu9EfzQ1tvuzbejZrCpwd2277QmkyNjsQPqylcDyJ+/vks3F2hXmExJ96+8vWNjcYPrWpyeFt6+wYb66h/USLoOffvK/s48vDd8R/NaOgbn0w9v5ZgFgoAALLLQsHiavCWy+N5Vd02XfPW3cZq6PZ63/tSal/mu5Ef1T/J3Pzxc3bbtvOEP4kfMq25vuPeaBvfuSrehZqqfVqi84Q/jh9WU7XrNzTa1NiOeNhpPfX97DzxxQ2fghD0X/am1D5oiWWhAAAguywULLIKrcnw978Sz6vqMvj5y3cbK5zOUK9wznlqX+ax8GmHRiaYPef9w27b95zz2vgh01rohYLe9x4e70JNQ9/8dGr7jef/U/ywmsJpA/H2jdR5/IviIacVLr656/azOQVhcvtg0nnin6X2RUsoCwUAANlloWDx1XH0c5KJLb3x3GpG2+78xG7jbP7ImfFDahq+/6up/ZjPGrnYX7gIXumI/XbbvpF37IPu0w5O7cN81sgdHcKnSFLbX3Vy/LCatt15Q2r7Rtq47h/jIae146f37T7GLE9BqIyzep/U/miJZKEAACC7LBQszgY+fWE8r5pR/KmArV+8Kn5ITWPtP07tw3y2/Tu3xrtQ08gj30pt3/ue1fHDptX3/mNSY8xng/9xWbwLNW3+6NtS2w987pL4YTUNfOai1PaN1Oi1MYb+M/3pk9meghC+zngsLZEsFAAAZJeFgsVZ9xl/Fc+pZrT1y9fuNka47kDdJieS0lEHpPZjPuo6+SVJ0sAdHjZfl55IN/qJgvh7M9+FyXS9+i4+Mr393fVv33/Fm1PbN9LAje+Nh5xWrVtNzuYUhPBzt3HdP6XG0hLIQgEAQHZZKGhOpcP3TTZff24y+vgPmnKbwdIRvx9PqWa05ZPv3G2M0fUPxw+ZVv8VJ6T2Yz7afu8t8VPXNjWZdB57UGqM7rP+On7ktCb6O6vePnK+auSj+GFRKN5+x0++Gz+spnA9g3j7Rhq667PxkNPq/+DxqTEqzfIUhPG+UuV0m9R4ynYWCgAAsstCwRwrT476P3BsMt6zYefEZ/N1Z6Uf12Adbzxgl6lUffouecNuY0wODcQPmdaOn34vtR/Nru/iI+KnnVatuzGEixM2qvfdhdQ489VYZ/23GywduX9q+7CwUa9wh4R4+0ba8ei98ZDTCrd+jMd4qnAbyqkd2+NNZhRORYnHUsazUAAAkF0WCmbfxne8Phl94qF4zlOZ5FWb/DXSxvP/OR52Rh3HvnDn9rOZSAfhIoPxvjSrMImcGOyLn3Ja4e4G8ThPNbGpK374tEYff2DBPlUwNTIUP31VE1s2prYNd4QIn6SoR7jQ41y/pvCOfiM6jjkwNcaubf7Y2+NN6hLf3lMZz0IBAEB2WShovO7TD06GH/haPM/ZTa3zuOst3MGgEfHFCHvOPiR+SF3CJyPm41oFYRFjrPTT+OmmVe0ihru2/btfjDeZUbULBza78P2rV+oOAuW6Tnl5/LCaxrufTG3fUGFRYnIiHramcFvD1BhxhdZkx4+/HW86o/BJhK5TXpYeT9nMQgEAQHZZKKi/cL/5oW98qq6J1dTYaNVzz+up+4xXJVMNXOwvCBek23WM/sveFD+kbpVbJTbxtnWdb/7ThhcJwve4+6zXpMbatfAOdKOmxnYkPW8/JDXWrCusSDZ//Jyk77K1O/9b95mvjp+2pqG7b0qN2XthW/ywmkZ+eFdq+0aqXFiyAaNPPpwao1pdJ//5rO6CUPnURxOu8aFFkIUCAIDsslAwc+Ed4sFbPpBMjQ7H85ppjXU8vtvpAPUUHj/e9UQ81PSmJisf6991nC2fuiB+VEPCOeOlI/ZL7V+jhUnvxEBjpxsE2776sdRYcR1rn1dZkGlUeFc8nDYSj9doPWf/7c5TTza+8192/vdwrYh6DXzufalxN3349PhhNYVPnsTbN1Kjd48In+KIx6jVrO6CUDZ4y+WpsZTBLBQAAGSXhYKZG7z1ynguU7fwTnp4dzUes1pdp76ioYvgPaXyCYBorG133hA/rGGjT/ywcppFPHY9hQvsDX3z0/GQdRnvDVfBf25qzGpt/9Z/xJvXZ2K8cnpIuB5APOZMhQtNbrv9o7t9sqTzhD/Z+edbbvi3Xz3PDPqvPDE1fpgo12vg0xemtm+kTVe/JR5yWoNfuCI1Rs1meReEsPAVrtGRGk/ZykIBAEB2WSiYuZ7zXhdPZRoSLmw3cNPFScfa56fGDnWe+Gez+sTCU8I72/GYs5qgVREulhcWHbre+hep50hVnhj2nPcPlQWC8BH/WSlP4MP3OzV2jbpPf2V5J6fiUeo23rM+2XTNqXVdfDJ8gmHLv78jmRzs322M8Pe26+O2fuUju/35dKpdrHH7vZ+PH1ZT/+XHpbZvpIHPXRIPOa3wKYF4jOnqPPHFszoFYaK/o+7FIi3SLBQAAGSXhYI6Kk+Ad7394ayVJ8HhHOxtX//3ymQyTKhHf/5g3Ve4r6bWR8Gbsr+R0fUPJ1u/fG3lgoB9l76xUv9VJyUDn31PZT/CFfznasu/n5/6WmZq6K7PxsM0LExmh39wRzLwmXeXv66jk94LDi13WNJ/xQmV0wN2/OS7Na8bET41suv+hHHqVe0OAqM/uz9+WE095/59avtGavR7F74n8Rgz1cipFLsKCybxWMpQFgoAALLLQkF9zfWc//kQJre7fuR9Z6v3qSxKZE24UGTqa6mjzuMOSia3boqHWzDD3799t/2p98KNk9u2pL6WUCMLLo1eAyNux6P3xkNOq97TaOJGHvx6PFRdwkJUPJYykoUCAIDsslBQX+Fj0JPDjX+Eej6F88vj/Qw1eiX7xWD4e7fN6U4LjVxAsNm2fulDu+3L1OhI/JCqKlf4j76OcApEvcLtBOPtG228txgPW9vE+KzvSBAWtCa3b41HnFFYDOt6y0tT4ykDWSgAAMguCwX1N/gfl8XzmD1m6BufTO3fU21817/GD1/Utt97y6wnoLsWrvOwJ2y69rSd+xAu4livcCHG+GsIt9Ss11jpsdT2jRQu5FjPrT6fMr6xPTVGI2360CnxkHUJp2I04+dDC5yFAgCA7LJQUH+lN/xhMrGpK57HLLiRR76VlA7fN7V/TxUmrlmx9bZrkmJhReprmFWF1mTo7pvip5h3u94aMVytv16DN78/9TU08smI4Qe+ltq+kcIFKhsx8qO7U2M02mxPQah2G0kt8iwUAABkl4WCxuq9KB/PYRZUOKe8dOQfpPZr1wY/X//t9faUcCeI/g8en9r3Obd6n2Tons/FTzevOo//o53Pv+nq+t8133TVyan933LDuvhhNYVbNMbbN1Lve1bHQ04rXIQzHqPROo9/UeXaDA2bnEg2rvvH1HhaxFkoAADILgsFjbenTkEI5/GXjtgvtT9xjdxeb08YfeKHSdepr0jtd9MqtCZbv3hV/LTzIix47Prc4VMC9ap2G8gw+a9XWFSIt2+kzdefGw85rXBBz3iM2dR/5Ynx0HUJ11PoeOMBqfG0SLNQAACQXRYKZlF5IhreXV0wE+PJwKcvrDxval+qFC6SV49wobiJ/s74P8+bcDHIzR8/p3mnGsxQ/+XHVb7G+bTjp/ft9pzhugP16lj7/NQ+Dz9wZ/ywmja+c1Vq+0baevt18ZDT6r/sTakxZtvw/V+Nh69Ltes6aJFmoQAAILssFMyyBXrXenT9w0n32/4m/fzTNDHQFw9TVZjkhmsdbL7urGS864n4j5smXJ1/65ev3e0j+gtV54kvnvV58fXou/iI3Z5v9PEfxA+panL7YGpfQ2Mdj8cPranjmANT2zdSo9+XnrMPSY0x28ItLSe29MZPUZf+K05IjadFmIUCAIDsslAwt8LF5+bjAofhCvObrjm14XffG7m93tDdN/5q20Jr5Zz14e9/JZmaGI8fOivjfaVk8OZLk443vSC1nwtd74VtyY7H7ot3cdbCJLf/ijennmdy66b4oVWNPPTN1Lbh72BqfCx+aFXhVoOp7Rus0cWhcIvQeIy51H3Gqyo/540KX3vXSS9JjadFloUCAIDsslAw90pHPTsZ+MxFycTm7nhO05jJiWTkh3cl/R84dta3g+s+/ZXxqDUN3HRxavtQx7EvTDZf97Zk5JF7kqmx0XizaYVb9oWPtPdecGjDixwLUc85f5ds++rHZrW4M9b5eOUaAr0XHFbz76fv0jfWVbgNYrxtuEhlWFipp7lenyAUFjrCLQvrqsqFF5tRWNjqe/8xv3iOa95a+bp2bdOHT0/tS7jGQfg5j8fSIstCAQBAdlkoaGLliXGYIG/94tWVd6/DOfnTmRwaqHxUfdvXbqjcAaBj7fPSYzZY73sPj5+mpjDhirePKx3x+5WrzW/+yJnJ4C0fSLbd+YnKRRW333Nz5RMJ4faGmz/29so79nvi1IK51H3awUn/VSclg1/4YLL93lsqtxvc8ePvVBZrtn/3i8m2Oz6ebPnE+UnvuwuL4lMRUqayUAAAkF0WCua30lEHJF2nvKxynYFQ1ykvTzpP+OPKBDx+bDPa/LGz4/WAmnrO+4fU9pLUlCwUAABkl4WCpVV4h79e3iWXNG9ZKAAAyC4LBUurcFpAPcJtA+NtJalpWSgAAMguCwVLq9EnH47XBKoa2/BIaltJaloWCgAAsstCwdJqctuWeE2gquH7vpzaVpKaloUCAIDsslCwdOp44wHxekBN4c4M8faS1LQsFAAAZJeFgqVT91l/Ha8H1BRudxhvL0lNy0IBAEB2WShYOvVd8oZ4PaCm3gsOS20vSU3LQgEAQHZZKFg6bblhXbweUFPXyX+e2l6SmpaFAgCA7LJQsHTa+pWPxOsB1U2MJ8XV+6S2l6SmZaEAACC7LBQsnYbv/2q8JFDVeM+G1LaS1NQsFAAAZJeFgqXTWPuP4zWBqkYe/s/UtpLU1CwUAABkl4WCpdPUyLZ4TaCqbXdcn9pWkpqahQIAgOyyULA0Kq1ZmQzefGldbXzH61PbS1JTs1AAAJBdFgokSU3PQgEAQHZZKJAkNT0LBQAA2WWhQJLU9CwUAABkl4UCSVLTs1AAAJBdFgokSU3PQgEAQHZZKJAkNT0LBQAA2WWhQJLU9CwUAABkl4UCSVLTs1AAAJBdFgokSU3PQgEAQHZZKJAkNT0LBQAA2WWhQJLU9CwUAABkl4UCSVLTs1AAAJBdFgokSU3PQgEAQHZZKJAkNT0LBQAA2WWhQJLU9CwUAABkl4UCSVLTs1AAAJBdFgokSU3PQgEAQHZZKJAkNT0LBQAA2WWhQJLU9CwUAABkl4UCSVLTs1AAAJBdFgokSU3PQgEAQHZZKJAkNT0LBQAA2WWhQJLU9CwUAABkl4UCSVLTs1AAAJBdFgokSU3PQgEAQHZZKJAkNT0LBQAA2WWhQJLU9CwUAABkl4UCSVLTs1AAAJBdFgokSU3PQgEAQHZZKJAkNT0LBQAA2WWhQJLU9CwUAABkl4UCSVLTs1AAAJBdFgokSU3PQgEAQHZZKJAkNT0LBQAA2WWhQJLU9CwUAABkV7HQ8q7UAZ4kSXOp0Pqh+PUGAICMaM/n1qUO8CRJmkPh02rx6w0AABlRzLecEh/gSZI0t1oviF9vAADIiFJb7uj0AZ4kSbOvPZ87M369AQAgI0qF3CHxAZ4kSXOp1JZbHb/eAACQER35loPiAzxJkuZSe375q+PXGwAAMqJ71bOeER/gSZI0l9a3LT8gfr0BACBDygd1m+ODPEmSZtnEo6sO/I34tQYAgAwptuXurnKgJ0lS4xVafhy/zgAAkDHFQuuHUgd6kiTNolJb7qb4dQYAgIwp5luPiw/0JEmaXa3nxq8zAABkTKmQe376QE+SpMbryLe8Mn6dAQAgY5J1y55ePrjbEh/sSZLUYONda5f/dvw6AwBABpUKuS9VOeCTJKn+Crnvxq8vAABkVCmfe3PqgE+SpAZqz+fWxa8vAABkVNfhy1fEB3ySJDXShtXLXxS/vgAAkGHt+dyD8UGfJEl1VkqWLXta/NoCAECGFdta317lwE+SpBkr5XMfiF9XAADIuF+efjAVH/xJkjRTGw5b/kfx6woAAEtAMd/6tfjgT5KkaWvLPRS/ngAAsEQU862HpQ4AJUmapvZ87qT49QQAgCXi0VUH/kb5oK8UHwRKklSjgccL+//3+PUEAIAlpJhvPa3KgaAkSanaC7n3xq8jAAAsMeGdofLB32B8MChJUtRY6fBcS/w6AgDAEtSez62rckAoSdIutVwVv34AALBE9a56xu+UDwJ70weFkiRVGtqwep//G79+AACwhIWrWFc5MJQkKSkWWt4Vv24A8P+3dzewetV3AccfGGVjDMekULjnf24vFUcIMplNkDkddUuczQySuZvec869Nw2R4qKS4Za4TaLVKWTJgsRkTrJk4guaSTAanUzjyyBxKmkUednC6Lj3nHN7gdYNGJbXttdz7hZ1/+cAbeltn5fPJ/kmhJf2eTnP//5+oScPwIhb/QaEIvlK33AoSRr3ln3TAQDAmKry9F0dA6IkaYwri+QD8c8LAADGSJUnn4uHREnS2PY38c8JAADGzNJ8clYzGO7pGBYlSePVU8vzE5PxzwkAAMZQWSTvaQbEQx1DoyRpbEpn4p8PAACMsTILn+wfGiVJ41H6B/HPBQAAxtyuHZvXVVm4p394lCSNeA/uu3r9GfHPBQAA6O2e23BOMzCWHUOkJGk0+0aZT26Kfx4AAMD/WsqTS5vBcX/HMClJGq0OLGbJu+OfAwAA0KcuwtZmgHyxY6iUJI1IZZ7Mx+c/AAC8rKpItzWD5MF4sJQkDX9lHq6Lz30AAHhVdRGuqXxtoiSNWMnH4/MeAAAOW52HohksD/QPmpKkoatIPxyf8wAAcMSq2fTKZsB8oW/glCQNSwfbPyUWn+8AAHDUymzyR+s8PNExfEqSBrtnqjz96fhcBwCA1+zR/LyNVRbu6xhCJUkDWbJQF+GS+DwHAIBj5vG5DadXRfiT/mFUkjRg/e1yNrE+PscBAGBN1FmYrVb/OGvfYCpJOrG9UOXpR1Z6vZPisxsAANZUtS39vioL93QMqZKkE1EWHlicmXh7fF4DAMBx0/4fqzoLP9sMqN/sG1glScerZ8ssfHTXjs3r4nMaAABOiMemzz27ypPfb4bVQx0DrCRpjarz8FcLM1NT8bkMAAADoRlYLyvz8OV4kJUkHeOK5CtVnr43PocBAGDgrN6OkIeiGWT39A22kqTX2pNlHq5b2dI7JT5/AQBgoK1+lWKefKIZap/rGHQlSUfWgeZM/d2l+eSs+LwFAICh0t47W2fhjo6hV5J0GNV5+Ie6CJfE5ysAAAy1OgtXVFm4Lx6AJUkv26NVll4Vn6cAADAyVnb2Ti6z5Npm+N3bMRBLkr7dM2WRfOyRrRe8Pj5HAQBgJC1snzqzytObm2H4pY4BWZLGtUNVlt62OLvxvPjcBACAsbBnduLCqgh3dQzLkjRWtV8t237FbHxOAgDAWKqLsLUZlB+OB2dJGvmysNR+pWz71bLx2QgAAGNt147N66o8ub4ZnJ/qG6QlafR6rjnzfqP9Ktn4PAQAAP6f3XMbzqnzcGszRB/sGKwlafgr0s+3Xx0bn38AAMArWMqTS5uB+u6+AVuShrQyD/9R5em74vMOAAA4AmWeTNd5WIwHbkkaovbWRbim/YrY+IwDAACOQj0dTqvy9IZm2N7fMYBL0qD2YpUln/r69KY3x+caAABwDNTzIWkG79s7hnFJGqjKPHxhaVvy1vgcAwAA1sBSlryjGcTvjQdzSTrR1Xn4ap2Fn4zPLQAAYI219/pWebq9KsJj8aAuSSegJ8si+dDKlt4p8XkFAAAcR/uuXn9GXYSbmiH9hY7BXZLWugNVnn5mOZtYH59PAADACVTmk5uagf0vOoZ4SVqTyjz8Y52Ft8XnEQAAMEDKInlPlYUH4oFeko5hj9Z5eH98/gAAAAOqvUe4KtKfb4b5b3QM+JJ0tD1TFsnHFrZPvSE+dwAAgCFQT4fvLYvwO9XqPcR9A78kHX5Zels1k07E5wwAADCEymzy4ipP/q5v8JekV+9f6jxcFp8rAADACKhm0yuboX93xyIgSXF76izMrvR6J8VnCQAAMEIemr741DIPv9z0rY7FQJKeq4rkNx+f23B6fH4AAAAj7NHs/A1VnnyuWQoOdSwKksawOgt3LMxMTcXnBQAAMEbKfHJzXYR/jhcGSWNUFu6rs3BFfD4AAABjqr0HucrSrFkY6r4FQtIot7fMkmtXdvZOjs8FAACA3vKOiTeWRfj1qr1HuX+hkDQ6vVjl6c1fn9705vgcAAAA6LM8PzFZFennO5YLSUNemYcv7JmduDD+3AMAALyqajb9sToP/x4vGpKGr+az/NW6CFvjzzkAAMARae9dbpaLa5ol44l48ZA0FD1ZFsmHdu3YvC7+fAMAABy19l7mKks+Va3e29y3iEgavA5WRfp7j02fe3b8eQYAADhmlrYlb62L8NcdS4mkwelLdRbeFn9+AQAA1kyVp+9t73nuWFAknbCShToLPxN/XgEAAI6LlS29U9p7n5sF5cn+hUXScey/qzz5+ML2qTfEn1MAAIDjbjmbWF/l6Weq9p7o/gVG0hpW5+EPq5l0Iv5cAgAAnHDtPdFVFv4pXmQkrUFF+Nd6Jvxw/DkEAAAYOHUe3t/eK9232Eg6Fu0p82Rupdc7Kf7sAQAADKz2Xun2nulq9d7pvkVH0pH3XJWnv/X43IbT488bAADA0GjvnV69h7p/6ZF0mNVZuGNxbuP58ecLAABgaC0VyeXtPdXxAiTpFfvPejZsiT9PAAAAI6G9p7rMk/lm+dnTsRBJ+r/2lVly7cp073Xx5wgAAGDk7J0++01Vlt7YLEPPdyxI0jj3UvPZ+O2F7VNnxp8bAACAkdfec90sRnd2LEvS+FWEu/bMTlwYf04AAADGzlKe/HizKN3ftzhJ49HDdRG2xp8LAACAsdbei13l6QebpWlfxyIljWJPVXly/a4dm9fFnwcAAAC+o8wn31Ln4ZZmiTrQsVhJo9DB5hq/9bHpc8+Or38AAABexuK2jRc1C9UXO5YsaZj70tJs8oPx9Q4AAMBhKovkp5rl6msdC5c0RCULzbX8gfj6BgAA4Cg8NH3xqVWefqRZuJ7uX8CkgW5/laW/Uk+H0+LrGgAAgNdo99yGc8o8fLZZvg51LGTSQFUW4Y/q+ZDE1zEAAADH2OLsxA9VWbgnXsykAenflork8vi6BQAAYA2t9HonVUW6rVnKqo5FTToRLZd5Mt9em/H1CgAAwHHS3vtd5+HXmiXt2Y7FTToePV9l6Y17p89+U3x9AgAAcIIsFUmo8uRPO5Y4aS27c3Fu4/nx9QgAAMCAKIuJdzbL266OhU46lt1fz4Yt8fUHAADAAFrZ2Tu5KtKr6zw80bHgSa+lfVWR/NzKdO918XUHAADAgHukuOB7yix8slnuXuxY+KQj6aU6D7csbJ86M77OAAAAGDL1bLigypK/7Fj+pFevCHctbtt4UXxdAQAAMOSqIv2JZvF7qG8RlLp7eHEmeV98HQEAADBCVrb0Tqmz8IvNEvjNjsVQanu6ytJfemj64lPj6wcAAIARtTSfnFUVyaebpfBAx6Ko8exQnYdbd89tOCe+XgAAABgTdREuaZbDv+9YGjVe3b2UJ5fG1wcAAABjqsrSq5pl8dGOBVIjXJ2HxTJPpuPrAQAAAHqPbL3g9WUWPtoskM/EC6VGrv1Vnt5QT4fT4usAAAAAvsvi7Mbzqiy9rVkmD3UsmBryyjz8cT0fkvh9BwAAgFdU5+GyZqn8crxoami7d6lILo/fZwAAADhsK73eSXUeimbJ3NOxeGo4Wq7ydHv7XsbvLwAAAByVx+c2nF7lySeapfO5jkVUg9nzdRFu2nf1+jPi9xMAAACOiYWZqak6C3d0LKUapLLw52U+uSl+/wAAAGBN1Fm4ollG7+tbUHWiu38xS94dv18AAACw5lZ29k4us+TaZjnd27Gw6vj2X1WefnBlS++U+H0CAACA42ph+9SZzZJ6c7OsvtSxwGptO1Dn4ZYyn3xL/L4AAADACbVnduLCqgh3dSyzWpu+uLht40Xx+wAAAAADpS7C1maJfbhjsdWx6WuLM8n74tcdAAAABtauHZvXVXlyfbPUPtWx6Oroeroq0g8/NH3xqfHrDQAAAENh99yGc+o83NosuQc7Fl8dXofKPHy2fS3j1xcAAACG0lKeXNosvHd3LMF6pbJwz+LMxNvj1xMAAABGQpkn03UeFvsWYn1Xq69RkW6LXz8AAAAYOfV0OK3K0xuahXh/vCAr7K+z8KvtaxS/bgAAADDS6vmQNIvx7R3L8rh2+1KRhPh1AgAAgLGylCXvaJbkezsW53Hp3sWZiR+JXxcAAAAYWys7eydXebq9KsJjHYv0aLb6XNPt7XOPXw8AAACgse/q9WfURbipWaSf71usR6fn2+fYPtf4+QMAAAAdlucnJqssva1Zqg91LNrD2qH2ObXPLX6+AAAAwGEos8mLmwX7ztUlu3/xHpbax35n+1zi5wcAAAAchXo2XFAVyaebhfvZjkV8UHu2fcztY4+fDwAAAHAMLM0nZ5V5uK5Zwnd1LOaD0q72MbaPNX78AAAAwBqp5tIfqLL0xioLD3Qs68e39jG0j6V5TPHjBAAAAI6zhZmpqToPv1Dn6Z81i/ty3yJ/7Ftuf6/292x/7/jxAAAAAAOkzCc3VXk6U+ZhZ52FO5rF/sHmr7/VsfC/Yt/5bx5sf4321/r2rzm5Kf79AAAAgCG0vGPijXUevr8sJt5Zz4Yt1Wx6ZZWlV63W/HX791b/WfPvtP9u/N8DAAAAAAAAAAAAAAAAAAAAAAAAAAAAAAAAAAAAAAAAAAAAAAAAAAAAAAAAAAAAAAAAAAAAAAAAAAAAAAAAAAAAAAAAAAAAAAAAAAAAAAAAAAAAAAAAAAAAAAAAAAAAAAAAAAAAAAAAAAAAAAAAAAAAAAAAAAAAAAAAAAAAAAAAAAAAAAAAAAAAAAAAAAAAAAAAAAAAAAAAAAAAAAAAAAAAAAAAAAAAAAAAAAAAAAAAAAAAAAAAAAAAAAAAAAAAAAAAAAAAAAAAAAAAAAAAAAAAAAAAAAAAAAAAAAAAAAAAAAAAAAAAAAAAAAAAAAAAAAAAAAAAAAAAAAAAAAAAAAAAAAAAAAAAAAAAAAAAAAAAAAAAAAAAAAAAAAAAAAAAAAAAAAAAAAAAAAAAAAAAAAAAAAAAAAAAAAAAAAAAAAAAAAAAAAAAAAAAAAAAAAAAAAAAAAAAAAAAAAAAAAAAAAAAAAAAAAAAAAAAAAAAAAAAAAAAAAAAAAAAAAAAAAAAAAAAAAAAAAAAAAAAAAAAAAAAAAAAAAAAAAAAAAAAAAAAAAAAAAAAAAAAAAAAAAAAAAAAAAAAAAAAAAAAAAAAAAAAAAAAAAAAAAAAAAAAAAAAAAAAAAAAAAAAAAAAAAAAAAAAAAAAAAAAAAAAAAAAAAAAAAAAAAAAAAAAAAAAAAAAAAAAAAAAAAAAAAAAAAAAAAAAAAAAAAAAAAAAAAAAAAAAAAAAAAAAAAAAAAAAAAAAAAAAAAAAAAAAAAAAAAAAAAAAAAAAAAAAAAAAAAAAAAAAAAAAAAAAAAAAAAAAAAAAAAAAAAAAAAAAAAAAAAAAAAAAAAAAAAAAAAAAAAAAAAAAAAAAAAAAAAAAAAAAAAAAMFD+BywFIbTDtMz4AAAAAElFTkSuQmCC;" parent="1" vertex="1">
          <mxGeometry x="340" y="70" width="125.27" height="94.5" as="geometry" />
        </mxCell>
      </root>
    </mxGraphModel>
  </diagram>
</mxfile>
